<?xml version="1.0" encoding="UTF-8"?>
<svg width="114pt" version="1.1" xmlns="http://www.w3.org/2000/svg" height="43pt" viewBox="0 0 114 43" xmlns:xlink="http://www.w3.org/1999/xlink">
 <defs>
  <clipPath id="Clip0">
   <path d="M0 0 L0 42.8232 L113.046 42.8232 L113.046 0 L0 0 Z" transform="translate(0, 0.176758)"/>
  </clipPath>
 </defs>
 <g id="Background">
  <g id="Group1" clip-path="url(#Clip0)">
   <path style="fill:#161413; fill-rule:nonzero;stroke:none;" d="M3.1132 3.0351 L2.0996 0.3906 L1.0654 3.0351 L3.1132 3.0351 Z M0 4.6933 L1.8584 0 L2.3525 0 L4.2246 4.6933 L3.7627 4.6933 L3.2627 3.4258 L0.9297 3.4258 L0.4345 4.6933 L0 4.6933 Z" transform="translate(41.6641, 31.3467)"/>
   <path style="fill:#161413; fill-rule:nonzero;stroke:none;" d="M2.1845 0 L2.5752 0 L2.5752 2.5293 C2.5752 2.7832 2.5947 3.0429 2.6074 3.2636 L2.2041 3.2636 L2.1845 2.7832 L2.1709 2.7695 C1.9433 3.1728 1.5742 3.3613 1.1503 3.3613 C0.0849 3.3613 0 2.4179 0 2.041 L0 0 L0.3906 0 L0.3906 2.1064 C0.3906 2.6718 0.7158 3.0039 1.249 3.0039 C1.8916 3.0039 2.1845 2.4648 2.1845 1.8789 L2.1845 0 Z" transform="translate(46.7852, 32.7764)"/>
   <path style="fill:#161413; fill-rule:nonzero;stroke:none;" d="M1.3067 0 C1.9239 0 2.4444 0.2149 2.4961 0.9043 L2.0742 0.9043 C2.0352 0.4942 1.6709 0.3584 1.2676 0.3584 C0.9034 0.3584 0.5332 0.502 0.5332 0.8848 C0.5332 1.3652 1.1631 1.3203 2.0479 1.6328 C2.3858 1.75 2.5996 2.042 2.5996 2.3926 C2.5996 3.127 1.918 3.459 1.2285 3.459 C0.6631 3.459 0.0127 3.1924 0 2.4707 L0.4229 2.4707 C0.4551 2.959 0.8838 3.1016 1.3262 3.1016 C1.7422 3.1016 2.1778 2.9063 2.1778 2.4512 C2.1778 1.9834 1.6641 1.9053 1.1446 1.7881 C0.6309 1.6641 0.1114 1.5156 0.1114 0.9102 C0.1114 0.2344 0.7354 0 1.3067 0 Z" transform="translate(50.5029, 32.6787)"/>
   <path style="fill:#161413; fill-rule:nonzero;stroke:none;" d="M0.6494 1.2207 L0 1.2207 L0 0.8633 L0.6494 0.8633 L0.6494 0.168 L1.0401 0 L1.0401 0.8633 L1.7813 0.8633 L1.7813 1.2207 L1.0401 1.2207 L1.0401 3.4053 C1.0332 3.7051 1.1895 3.8672 1.4893 3.8672 C1.6055 3.8672 1.7227 3.8603 1.8272 3.8281 L1.8272 4.166 C1.7031 4.1982 1.5606 4.2246 1.4307 4.2246 C0.6045 4.2246 0.6494 3.6973 0.6494 3.2558 L0.6494 1.2207 Z" transform="translate(53.9287, 31.9131)"/>
   <path style="fill:#161413; fill-rule:nonzero;stroke:none;" d="M0.4228 3.3671 L0.0332 3.3671 L0.0332 0.8378 C0.039 0.5849 0.0127 0.3251 0 0.1035 L0.4033 0.1035 L0.4228 0.5849 L0.4355 0.5849 C0.5527 0.2539 0.8457 0.0195 1.1709 0.0058 C1.3007 0 1.4296 0.0058 1.5595 0.0136 L1.5595 0.3906 C1.4824 0.3837 1.3974 0.3642 1.3203 0.3642 C0.7412 0.3642 0.4355 0.7802 0.4228 1.4042 L0.4228 3.3671 Z" transform="translate(56.7559, 32.6729)"/>
   <path style="fill:#161413; fill-rule:nonzero;stroke:none;" d="M1.1572 3.1016 C2.0088 3.1016 2.1709 2.3994 2.1318 1.7168 C1.5801 1.7363 0.4228 1.6328 0.4228 2.4512 C0.4228 2.8926 0.7607 3.1016 1.1572 3.1016 Z M2.1318 1.0606 C2.0928 0.5274 1.8203 0.3584 1.3594 0.3584 C0.9492 0.3584 0.6113 0.4824 0.5596 0.9238 L0.1435 0.9238 C0.2402 0.2539 0.7412 0 1.3652 0 C2.0869 0 2.5351 0.332 2.5224 1.0801 L2.5224 2.627 C2.5156 2.8809 2.542 3.1406 2.5547 3.3613 L2.1514 3.3613 L2.1387 2.8809 L2.126 2.8809 L2.1064 2.9258 C1.9639 3.1992 1.5273 3.459 1.0849 3.459 C0.4805 3.459 0 3.0879 0 2.4512 C0 2.0098 0.2666 1.6719 0.6562 1.5088 C1.0928 1.3203 1.6572 1.3848 2.1318 1.3594 L2.1318 1.0606 Z" transform="translate(58.9922, 32.6787)"/>
   <path style="fill:#161413; fill-rule:nonzero;stroke:none;" d="M0.3896 4.6933 L0 4.6933 L0 0 L0.3896 0 L0.3896 4.6933 Z" transform="translate(62.8604, 31.3467)"/>
   <path style="fill:#161413; fill-rule:nonzero;stroke:none;" d="M0.4229 1.4297 L0.4229 4.6933 L0.0332 4.6933 L0.0332 1.4297 L0.4229 1.4297 Z M0.4551 0.4883 L0 0.4883 L0 0 L0.4551 0 L0.4551 0.4883 Z" transform="translate(64.5947, 31.3467)"/>
   <path style="fill:#161413; fill-rule:nonzero;stroke:none;" d="M1.1582 3.1016 C2.0098 3.1016 2.1719 2.3994 2.1329 1.7168 C1.5801 1.7363 0.4239 1.6328 0.4239 2.4512 C0.4239 2.8926 0.7618 3.1016 1.1582 3.1016 Z M2.1329 1.0606 C2.0938 0.5274 1.8204 0.3584 1.3594 0.3584 C0.9493 0.3584 0.6114 0.4824 0.5596 0.9238 L0.1436 0.9238 C0.2413 0.2539 0.7422 0 1.3653 0 C2.0879 0 2.5352 0.332 2.5235 1.0801 L2.5235 2.627 C2.5157 2.8809 2.542 3.1406 2.5547 3.3613 L2.1524 3.3613 L2.1387 2.8809 L2.126 2.8809 L2.1075 2.9258 C1.9639 3.1992 1.5284 3.459 1.086 3.459 C0.4815 3.459 0 3.0879 0 2.4512 C0 2.0098 0.2676 1.6719 0.6573 1.5088 C1.0928 1.3203 1.6582 1.3848 2.1329 1.3594 L2.1329 1.0606 Z" transform="translate(66.1025, 32.6787)"/>
   <path style="fill:#161413; fill-rule:nonzero;stroke:none;" d="M0.5264 0 L0.4629 1.4356 L0.041 1.4356 L0 0 L0.5264 0 Z" transform="translate(70.1455, 31.5371)"/>
   <path style="fill:#161413; fill-rule:nonzero;stroke:none;" d="M1.3066 0 C1.9248 0 2.4453 0.2149 2.496 0.9043 L2.0742 0.9043 C2.0351 0.4942 1.6718 0.3584 1.2675 0.3584 C0.9043 0.3584 0.5332 0.502 0.5332 0.8848 C0.5332 1.3652 1.164 1.3203 2.0488 1.6328 C2.3867 1.75 2.6005 2.042 2.6005 2.3926 C2.6005 3.127 1.9179 3.459 1.2285 3.459 C0.664 3.459 0.0136 3.1924 0 2.4707 L0.4238 2.4707 C0.455 2.959 0.8847 3.1016 1.3261 3.1016 C1.7421 3.1016 2.1777 2.9063 2.1777 2.4512 C2.1777 1.9834 1.664 1.9053 1.1445 1.7881 C0.6308 1.6641 0.1113 1.5156 0.1113 0.9102 C0.1113 0.2344 0.7353 0 1.3066 0 Z" transform="translate(71.3936, 32.6787)"/>
   <path style="fill:#161413; fill-rule:nonzero;stroke:none;" d="M3.1132 3.0351 L2.0996 0.3906 L1.0664 3.0351 L3.1132 3.0351 Z M0 4.6933 L1.8593 0 L2.3535 0 L4.2255 4.6933 L3.7636 4.6933 L3.2636 3.4258 L0.9296 3.4258 L0.4355 4.6933 L0 4.6933 Z" transform="translate(76.8604, 31.3467)"/>
   <path style="fill:#161413; fill-rule:nonzero;stroke:none;" d="M2.2822 1.0996 C2.249 0.5986 1.9307 0.3584 1.3916 0.3584 C0.794 0.3584 0.4229 0.9824 0.4229 1.7227 C0.4229 2.4707 0.794 3.1016 1.3916 3.1016 C1.8985 3.1016 2.249 2.7891 2.2822 2.3408 L2.7041 2.3408 C2.6006 3.0879 2.1709 3.459 1.4307 3.459 C0.4551 3.459 0 2.6201 0 1.7305 C0 0.8457 0.4873 0 1.4561 0 C2.126 0 2.6719 0.4043 2.7041 1.0996 L2.2822 1.0996 Z" transform="translate(81.7617, 32.6787)"/>
   <path style="fill:#161413; fill-rule:nonzero;stroke:none;" d="M1.1572 3.1016 C2.0088 3.1016 2.1709 2.3994 2.1318 1.7168 C1.5791 1.7363 0.4228 1.6328 0.4228 2.4512 C0.4228 2.8926 0.7607 3.1016 1.1572 3.1016 Z M2.1318 1.0606 C2.0928 0.5274 1.8203 0.3584 1.3584 0.3584 C0.9492 0.3584 0.6113 0.4824 0.5596 0.9238 L0.1435 0.9238 C0.2412 0.2539 0.7412 0 1.3652 0 C2.0869 0 2.5351 0.332 2.5224 1.0801 L2.5224 2.627 C2.5156 2.8809 2.542 3.1406 2.5547 3.3613 L2.1514 3.3613 L2.1387 2.8809 L2.126 2.8809 L2.1064 2.9258 C1.9639 3.1992 1.5283 3.459 1.0849 3.459 C0.4814 3.459 0 3.0879 0 2.4512 C0 2.0098 0.2666 1.6719 0.6572 1.5088 C1.0928 1.3203 1.6572 1.3848 2.1318 1.3594 L2.1318 1.0606 Z" transform="translate(85.2715, 32.6787)"/>
   <path style="fill:#161413; fill-rule:nonzero;stroke:none;" d="M1.4043 1.6904 C0.6641 1.6904 0.4239 2.3789 0.4239 3.0039 C0.4239 3.6074 0.5987 4.4336 1.3457 4.4336 C2.1973 4.4336 2.4571 3.7246 2.4571 2.9844 C2.4571 2.3203 2.1651 1.6904 1.4043 1.6904 Z M2.4707 4.2129 L2.4571 4.1865 C2.1914 4.5762 1.795 4.791 1.3399 4.791 C0.3711 4.791 0 3.8672 0 3.0488 C0 2.2031 0.3711 1.332 1.3399 1.332 C1.7754 1.332 2.2305 1.541 2.4571 1.9238 L2.4707 1.9111 L2.4707 0 L2.8614 0 L2.8614 3.959 C2.8614 4.2129 2.8809 4.4726 2.8926 4.6933 L2.4903 4.6933 L2.4707 4.2129 Z" transform="translate(88.9111, 31.3467)"/>
   <path style="fill:#161413; fill-rule:nonzero;stroke:none;" d="M2.5224 1.4629 C2.4765 0.832 2.1376 0.3584 1.4619 0.3584 C0.8251 0.3584 0.4873 0.8906 0.4355 1.4629 L2.5224 1.4629 Z M0.4228 1.8203 C0.4355 2.5156 0.7539 3.1016 1.5537 3.1016 C2.0146 3.1016 2.3984 2.7695 2.496 2.3213 L2.9052 2.3213 C2.7041 3.1016 2.2158 3.459 1.4296 3.459 C0.4541 3.459 0 2.6201 0 1.7305 C0 0.8457 0.4873 0 1.456 0 C2.5478 0 2.9443 0.8008 2.9443 1.8203 L0.4228 1.8203 Z" transform="translate(92.877, 32.6787)"/>
   <path style="fill:#161413; fill-rule:nonzero;stroke:none;" d="M0.4219 0.5791 L0.4355 0.5918 C0.6621 0.1895 1.0332 0 1.4551 0 C1.9687 0 2.3721 0.2871 2.5156 0.7158 C2.7558 0.332 3.1323 0 3.6393 0 C4.7053 0 4.7903 0.9434 4.7903 1.3203 L4.7903 3.3613 L4.4003 3.3613 L4.4003 1.2559 C4.4003 0.6895 4.0753 0.3584 3.5423 0.3584 C2.8984 0.3584 2.6054 0.8984 2.6054 1.4824 L2.6054 3.3613 L2.2168 3.3613 L2.2168 1.2559 C2.2168 0.6895 1.8906 0.3584 1.3574 0.3584 C0.7148 0.3584 0.4219 0.8984 0.4219 1.4824 L0.4219 3.3613 L0.0322 3.3613 L0.0322 0.832 C0.0322 0.5791 0.0127 0.3193 0 0.0977 L0.4023 0.0977 L0.4219 0.5791 Z" transform="translate(96.9717, 32.6787)"/>
   <path style="fill:#161413; fill-rule:nonzero;stroke:none;" d="M0.423 1.4297 L0.423 4.6933 L0.032 4.6933 L0.032 1.4297 L0.423 1.4297 Z M0.455 0.4883 L0 0.4883 L0 0 L0.455 0 L0.455 0.4883 Z" transform="translate(103.088, 31.3467)"/>
   <path style="fill:#161413; fill-rule:nonzero;stroke:none;" d="M2.282 1.0996 C2.249 0.5986 1.931 0.3584 1.392 0.3584 C0.794 0.3584 0.423 0.9824 0.423 1.7227 C0.423 2.4707 0.794 3.1016 1.392 3.1016 C1.899 3.1016 2.249 2.7891 2.282 2.3408 L2.704 2.3408 C2.601 3.0879 2.171 3.459 1.431 3.459 C0.455 3.459 0 2.6201 0 1.7305 C0 0.8457 0.487 0 1.456 0 C2.126 0 2.672 0.4043 2.704 1.0996 L2.282 1.0996 Z" transform="translate(104.66, 32.6787)"/>
   <path style="fill:#161413; fill-rule:nonzero;stroke:none;" d="M1.1572 3.0996 C2.0088 3.0996 2.1718 2.3984 2.1328 1.7158 C1.58 1.7353 0.4228 1.6309 0.4228 2.4502 C0.4228 2.8926 0.7607 3.0996 1.1572 3.0996 Z M2.1328 1.0586 C2.0927 0.5264 1.8203 0.3574 1.3593 0.3574 C0.9492 0.3574 0.6113 0.4805 0.5586 0.9228 L0.1425 0.9228 C0.2412 0.2539 0.7412 0 1.3652 0 C2.0869 0 2.5351 0.331 2.5215 1.0781 L2.5215 2.626 C2.5156 2.8789 2.542 3.1387 2.5547 3.3603 L2.1513 3.3603 L2.1386 2.8789 L2.1259 2.8789 L2.1054 2.9248 C1.9629 3.1973 1.5283 3.458 1.0849 3.458 C0.4804 3.458 0 3.0879 0 2.4502 C0 2.0078 0.2666 1.6699 0.6562 1.5078 C1.0927 1.3193 1.6582 1.3848 2.1328 1.3584 L2.1328 1.0586 Z" transform="translate(41.8389, 39.542)"/>
   <path style="fill:#161413; fill-rule:nonzero;stroke:none;" d="M0.4239 3.3603 L0.0332 3.3603 L0.0332 0.832 C0.0332 0.5781 0.0137 0.3184 0 0.0976 L0.4034 0.0976 L0.4239 0.5781 L0.4366 0.5918 C0.6631 0.1875 1.0342 0 1.4571 0 C2.5235 0 2.6075 0.9424 2.6075 1.3193 L2.6075 3.3603 L2.2168 3.3603 L2.2168 1.2539 C2.2168 0.6894 1.8916 0.3574 1.3594 0.3574 C0.7159 0.3574 0.4239 0.8965 0.4239 1.4824 L0.4239 3.3603 Z" transform="translate(45.6279, 39.542)"/>
   <path style="fill:#161413; fill-rule:nonzero;stroke:none;" d="M1.4043 1.6904 C0.6622 1.6904 0.4219 2.3799 0.4219 3.0029 C0.4219 3.6084 0.5977 4.4326 1.3457 4.4326 C2.1963 4.4326 2.4571 3.7246 2.4571 2.9834 C2.4571 2.3213 2.1641 1.6904 1.4043 1.6904 Z M2.4698 4.2119 L2.4571 4.1865 C2.1905 4.5762 1.794 4.791 1.3389 4.791 C0.3702 4.791 0 3.8681 0 3.0488 C0 2.2041 0.3702 1.333 1.3389 1.333 C1.7745 1.333 2.2295 1.54 2.4571 1.9248 L2.4698 1.9111 L2.4698 0 L2.8594 0 L2.8594 3.959 C2.8594 4.2119 2.879 4.4717 2.8916 4.6933 L2.4893 4.6933 L2.4698 4.2119 Z" transform="translate(49.3398, 38.209)"/>
   <path style="fill:#161413; fill-rule:nonzero;stroke:none;" d="M1.3262 2.0674 C1.9239 2.0674 2.6651 2.0283 2.6651 1.2285 C2.6651 0.3252 1.8203 0.3896 1.3711 0.3896 L0.4229 0.3896 L0.4229 2.0674 L1.3262 2.0674 Z M0.4229 4.6933 L0 4.6933 L0 0 L1.5342 0 C1.9444 0 2.2823 0.0264 2.6397 0.2471 C2.9649 0.4424 3.1201 0.7803 3.1201 1.2285 C3.1201 1.7353 2.7627 2.0996 2.2168 2.2363 L2.2168 2.249 C2.8155 2.3467 2.9444 2.75 3.003 3.2959 C3.0879 4.0556 3.0615 4.4072 3.25 4.6933 L2.7627 4.6933 C2.6524 4.3818 2.626 4.0498 2.5996 3.7178 C2.503 2.6455 2.4375 2.458 1.586 2.458 L0.4229 2.458 L0.4229 4.6933 Z" transform="translate(55.7031, 38.209)"/>
   <path style="fill:#161413; fill-rule:nonzero;stroke:none;" d="M2.5224 1.4629 C2.4765 0.832 2.1377 0.3574 1.4619 0.3574 C0.8252 0.3574 0.4873 0.8906 0.4355 1.4629 L2.5224 1.4629 Z M0.4218 1.8203 C0.4355 2.5156 0.7539 3.0996 1.5537 3.0996 C2.0146 3.0996 2.3984 2.7695 2.4961 2.3203 L2.9052 2.3203 C2.7041 3.0996 2.2158 3.458 1.4297 3.458 C0.455 3.458 0 2.6191 0 1.7285 C0 0.8447 0.4873 0 1.456 0 C2.5478 0 2.9443 0.7988 2.9443 1.8203 L0.4218 1.8203 Z" transform="translate(59.9805, 39.542)"/>
   <path style="fill:#161413; fill-rule:nonzero;stroke:none;" d="M1.3067 0 C1.9248 0 2.4444 0.2148 2.4961 0.9033 L2.0733 0.9033 C2.0342 0.4941 1.6709 0.3574 1.2676 0.3574 C0.9033 0.3574 0.5332 0.5 0.5332 0.8838 C0.5332 1.3652 1.1631 1.3193 2.0479 1.6309 C2.3858 1.748 2.6006 2.041 2.6006 2.3916 C2.6006 3.1269 1.918 3.458 1.2285 3.458 C0.6631 3.458 0.0127 3.1914 0 2.4697 L0.4229 2.4697 C0.4551 2.957 0.8838 3.0996 1.3262 3.0996 C1.7422 3.0996 2.1778 2.9053 2.1778 2.4502 C2.1778 1.9824 1.6641 1.9043 1.1436 1.7871 C0.6309 1.6641 0.1104 1.5137 0.1104 0.9101 C0.1104 0.2344 0.7354 0 1.3067 0 Z" transform="translate(63.8535, 39.542)"/>
   <path style="fill:#161413; fill-rule:nonzero;stroke:none;" d="M2.5225 1.4629 C2.4766 0.832 2.1377 0.3574 1.4619 0.3574 C0.8252 0.3574 0.4873 0.8906 0.4356 1.4629 L2.5225 1.4629 Z M0.4229 1.8203 C0.4356 2.5156 0.7539 3.0996 1.5537 3.0996 C2.0147 3.0996 2.3985 2.7695 2.4961 2.3203 L2.9053 2.3203 C2.7041 3.0996 2.2158 3.458 1.4297 3.458 C0.4541 3.458 0 2.6191 0 1.7285 C0 0.8447 0.4873 0 1.4561 0 C2.5479 0 2.9444 0.7988 2.9444 1.8203 L0.4229 1.8203 Z" transform="translate(67.416, 39.542)"/>
   <path style="fill:#161413; fill-rule:nonzero;stroke:none;" d="M1.1572 3.0996 C2.0088 3.0996 2.1709 2.3984 2.1318 1.7158 C1.5791 1.7353 0.4229 1.6309 0.4229 2.4502 C0.4229 2.8926 0.7608 3.0996 1.1572 3.0996 Z M2.1318 1.0586 C2.0928 0.5264 1.8203 0.3574 1.3584 0.3574 C0.9492 0.3574 0.6113 0.4805 0.5596 0.9228 L0.1436 0.9228 C0.2412 0.2539 0.7412 0 1.3652 0 C2.0869 0 2.5352 0.331 2.5225 1.0781 L2.5225 2.626 C2.5156 2.8789 2.542 3.1387 2.5547 3.3603 L2.1514 3.3603 L2.1387 2.8789 L2.126 2.8789 L2.1065 2.9248 C1.9639 3.1973 1.5283 3.458 1.085 3.458 C0.4815 3.458 0 3.0879 0 2.4502 C0 2.0078 0.2666 1.6699 0.6572 1.5078 C1.0928 1.3193 1.6572 1.3848 2.1318 1.3584 L2.1318 1.0586 Z" transform="translate(71.2246, 39.542)"/>
   <path style="fill:#161413; fill-rule:nonzero;stroke:none;" d="M0.4219 3.3671 L0.0323 3.3671 L0.0323 0.8388 C0.0391 0.5849 0.0127 0.3252 0 0.1044 L0.4024 0.1044 L0.4219 0.5849 L0.4356 0.5849 C0.5528 0.2529 0.8448 0.0195 1.17 0.0068 C1.2999 0 1.4297 0.0068 1.5596 0.0127 L1.5596 0.3896 C1.4825 0.3837 1.3975 0.3642 1.3194 0.3642 C0.7403 0.3642 0.4356 0.7802 0.4219 1.4043 L0.4219 3.3671 Z" transform="translate(75.0146, 39.5352)"/>
   <path style="fill:#161413; fill-rule:nonzero;stroke:none;" d="M2.2812 1.0976 C2.248 0.5976 1.9297 0.3574 1.3906 0.3574 C0.7929 0.3574 0.4218 0.9814 0.4218 1.7226 C0.4218 2.4697 0.7929 3.0996 1.3906 3.0996 C1.8984 3.0996 2.248 2.7891 2.2812 2.3398 L2.7031 2.3398 C2.5996 3.0879 2.1709 3.458 1.4297 3.458 C0.455 3.458 0 2.6191 0 1.7285 C0 0.8447 0.4873 0 1.455 0 C2.125 0 2.6718 0.4023 2.7031 1.0976 L2.2812 1.0976 Z" transform="translate(77.2764, 39.542)"/>
   <path style="fill:#161413; fill-rule:nonzero;stroke:none;" d="M0.3897 1.9248 L0.4033 1.9248 C0.6299 1.5205 1.001 1.333 1.4229 1.333 C2.4893 1.333 2.5742 2.2754 2.5742 2.6523 L2.5742 4.6933 L2.1846 4.6933 L2.1846 2.5869 C2.1846 2.0224 1.8584 1.6904 1.3262 1.6904 C0.6826 1.6904 0.3897 2.2295 0.3897 2.8154 L0.3897 4.6933 L0 4.6933 L0 0 L0.3897 0 L0.3897 1.9248 Z" transform="translate(81.0332, 38.209)"/>
   <path style="fill:#161413; fill-rule:nonzero;stroke:none;" d="M0 0 L0.4805 0 L3.0674 4.1279 L3.0801 4.1279 L3.0801 0 L3.5029 0 L3.5029 4.6933 L2.9707 4.6933 L0.4355 0.6377 L0.4219 0.6377 L0.4219 4.6933 L0 4.6933 L0 0 Z" transform="translate(87.1045, 38.209)"/>
   <path style="fill:#161413; fill-rule:nonzero;stroke:none;" d="M2.5224 1.4629 C2.4765 0.832 2.1386 0.3574 1.4629 0.3574 C0.8261 0.3574 0.4883 0.8906 0.4355 1.4629 L2.5224 1.4629 Z M0.4228 1.8203 C0.4355 2.5156 0.7539 3.0996 1.5537 3.0996 C2.0156 3.0996 2.3984 2.7695 2.4961 2.3203 L2.9062 2.3203 C2.705 3.0996 2.2168 3.458 1.4297 3.458 C0.455 3.458 0 2.6191 0 1.7285 C0 0.8447 0.4883 0 1.457 0 C2.5488 0 2.9453 0.7988 2.9453 1.8203 L0.4228 1.8203 Z" transform="translate(91.8096, 39.542)"/>
   <path style="fill:#161413; fill-rule:nonzero;stroke:none;" d="M0.6504 1.2227 L0 1.2227 L0 0.8652 L0.6504 0.8652 L0.6504 0.1699 L1.04 0 L1.04 0.8652 L1.7812 0.8652 L1.7812 1.2227 L1.04 1.2227 L1.04 3.4063 C1.0332 3.7051 1.1894 3.8672 1.4883 3.8672 C1.6054 3.8672 1.7226 3.8613 1.8262 3.8291 L1.8262 4.167 C1.7031 4.1992 1.5605 4.2256 1.4297 4.2256 C0.6045 4.2256 0.6504 3.6992 0.6504 3.2569 L0.6504 1.2227 Z" transform="translate(95.5342, 38.7744)"/>
   <path style="fill:#161413; fill-rule:nonzero;stroke:none;" d="M1.4033 2.7491 L1.4169 2.7491 L2.4055 0 L2.8665 0 L3.8295 2.7227 L3.8415 2.7227 L4.7845 0 L5.2135 0 L3.9975 3.2627 L3.6265 3.2627 L2.6255 0.4483 L2.6135 0.4483 L1.5927 3.2627 L1.1962 3.2627 L0 0 L0.4287 0 L1.4033 2.7491 Z" transform="translate(97.9395, 39.6396)"/>
   <path style="fill:#161413; fill-rule:nonzero;stroke:none;" d="M1.522 0.3574 C0.735 0.3574 0.423 1.125 0.423 1.7285 C0.423 2.334 0.735 3.0996 1.522 3.0996 C2.309 3.0996 2.62 2.334 2.62 1.7285 C2.62 1.125 2.309 0.3574 1.522 0.3574 Z M3.043 1.7285 C3.043 2.5869 2.562 3.458 1.522 3.458 C0.482 3.458 0 2.5869 0 1.7285 C0 0.8711 0.482 0 1.522 0 C2.562 0 3.043 0.8711 3.043 1.7285 Z" transform="translate(103.821, 39.542)"/>
   <path style="fill:#161413; fill-rule:nonzero;stroke:none;" d="M0.423 3.3671 L0.033 3.3671 L0.033 0.8388 C0.039 0.5849 0.014 0.3252 0 0.1044 L0.403 0.1044 L0.423 0.5849 L0.435 0.5849 C0.553 0.2529 0.846 0.0195 1.17 0.0068 C1.301 0 1.43 0.0068 1.56 0.0127 L1.56 0.3896 C1.482 0.3837 1.398 0.3642 1.32 0.3642 C0.741 0.3642 0.435 0.7802 0.423 1.4043 L0.423 3.3671 Z" transform="translate(107.923, 39.5352)"/>
   <path style="fill:#161413; fill-rule:nonzero;stroke:none;" d="M0.39 2.7627 L1.97 1.4306 L2.47 1.4306 L0.82 2.8408 L2.601 4.6933 L2.107 4.6933 L0.39 2.9248 L0.39 4.6933 L0 4.6933 L0 0 L0.39 0 L0.39 2.7627 Z" transform="translate(110.445, 38.209)"/>
   <path style="fill:#161413; fill-rule:nonzero;stroke:none;" d="M7.0001 12.5556 L7.0001 14.2402 C6.6521 14.333 6.2681 14.4091 5.8531 14.4658 C5.4381 14.5273 5.0641 14.5576 4.7421 14.5576 C3.6054 14.5576 2.7402 14.2509 2.1513 13.6416 C1.5566 13.0273 1.2656 12.0488 1.2656 10.6972 L1.2656 4.77734 L0 4.77734 L0 3.18944 L1.2656 3.18944 L1.2656 0 L3.1445 0 L3.1445 3.18944 L7.0001 3.18944 L7.0001 4.77734 L3.1445 4.77734 L3.1445 9.86234 C3.1445 10.4463 3.1601 10.9023 3.1855 11.2343 C3.2109 11.5625 3.3037 11.8701 3.4619 12.1562 C3.6103 12.4228 3.8105 12.6172 4.0664 12.7402 C4.3173 12.8632 4.7121 12.9248 5.2331 12.9248 C5.5361 12.9248 5.8581 12.8838 6.1861 12.792 C6.5191 12.6992 6.7601 12.6172 6.9031 12.5556 L7.0001 12.5556 Z" transform="translate(95.5479, 9.16406)"/>
   <path style="fill:#161413; fill-rule:nonzero;stroke:none;" d="M8.3105 4.6387 C8.3056 3.6504 8.0547 2.8877 7.5635 2.3496 C7.0771 1.8076 6.3291 1.541 5.331 1.541 C4.3222 1.541 3.5176 1.8379 2.9238 2.4268 C2.3252 3.0156 1.9863 3.7578 1.9053 4.6387 L8.3105 4.6387 Z M1.4951 1.6026 C2.4883 0.5322 3.7998 0 5.4228 0 C6.9287 0 8.0859 0.4404 8.9053 1.3203 C9.7187 2.1963 10.124 3.4463 10.124 5.0645 L10.124 6.083 L1.9053 6.083 C1.9053 6.7637 2.0068 7.3584 2.2168 7.8653 C2.4219 8.3672 2.7041 8.7813 3.0625 9.1045 C3.4101 9.4209 3.8203 9.6621 4.2959 9.8213 C4.7676 9.9746 5.2949 10.0567 5.8681 10.0567 C6.626 10.0567 7.3887 9.9033 8.1572 9.6006 C8.9199 9.294 9.4678 8.9971 9.7959 8.7002 L9.8984 8.7002 L9.8984 10.7481 C9.2637 11.0137 8.6181 11.2393 7.9629 11.419 C7.3017 11.5977 6.6103 11.6846 5.8838 11.6846 C4.0351 11.6846 2.5908 11.1885 1.5566 10.1895 C0.5176 9.1914 0 7.7725 0 5.9346 C0 4.1162 0.4971 2.6729 1.4951 1.6026 Z" transform="translate(85.0508, 12.0576)"/>
   <path style="fill:#161413; fill-rule:nonzero;stroke:none;" d="M1.8838 1.5459 C2.4678 1.0596 3.0723 0.6807 3.6973 0.4092 C4.3213 0.1377 4.9619 0 5.6221 0 C6.8252 0 7.7422 0.3633 8.3721 1.085 C9.0068 1.8125 9.3193 2.8516 9.3193 4.2139 L9.3193 11.4336 L7.4404 11.4336 L7.4404 5.1045 C7.4404 4.5928 7.4092 4.1162 7.3477 3.666 C7.292 3.2207 7.1787 2.8721 7.0205 2.6162 C6.8565 2.3399 6.6152 2.1299 6.3037 1.9971 C5.9912 1.8584 5.5869 1.792 5.0899 1.792 C4.5781 1.792 4.04 1.9199 3.4873 2.1709 C2.9287 2.4209 2.3906 2.7442 1.8838 3.1338 L1.8838 11.4336 L0 11.4336 L0 0.2959 L1.8838 0.2959 L1.8838 1.5459 Z" transform="translate(74.958, 12.0576)"/>
   <path style="fill:#161413; fill-rule:nonzero;stroke:none;" d="M8.1016 0.041 L8.1016 3.4717 L7.7842 3.4717 C7.6358 3.416 7.3897 3.375 7.0518 3.3496 C6.7139 3.3233 6.4317 3.3086 6.2071 3.3086 C5.7002 3.3086 5.2491 3.3438 4.8604 3.4112 C4.4707 3.4776 4.0508 3.585 3.6006 3.749 L3.6006 11.2295 L0 11.2295 L0 0.0459 L3.6006 0.0459 L3.6006 1.6953 C4.3887 1.0147 5.0752 0.5635 5.6534 0.3379 C6.2373 0.1133 6.7705 0 7.2618 0 C7.3848 0 7.5284 0.0059 7.6866 0.0108 C7.8457 0.0205 7.9834 0.0313 8.1016 0.041 Z" transform="translate(65.4941, 12.2617)"/>
   <path style="fill:#161413; fill-rule:nonzero;stroke:none;" d="M7.6035 8.5977 L7.6035 6.2676 C7.1172 6.3086 6.5947 6.3653 6.0312 6.4317 C5.4736 6.504 5.0429 6.585 4.7509 6.6778 C4.3974 6.7901 4.1211 6.9541 3.9326 7.169 C3.747 7.3848 3.6504 7.6661 3.6504 8.0196 C3.6504 8.25 3.6709 8.4395 3.7119 8.5879 C3.7529 8.7305 3.8506 8.8692 4.0088 9.002 C4.1631 9.1358 4.3418 9.2325 4.5566 9.294 C4.7666 9.3614 5.0947 9.3916 5.5507 9.3916 C5.9043 9.3916 6.2675 9.3204 6.6357 9.1719 C7 9.0284 7.3222 8.8331 7.6035 8.5977 Z M1.3154 3.2618 L0.9882 3.2618 L0.9882 0.5586 C1.3672 0.461 1.9804 0.3428 2.831 0.2051 C3.6865 0.0723 4.5371 0 5.3916 0 C7.4297 0 8.8994 0.3174 9.8007 0.9424 C10.707 1.5723 11.1572 2.5606 11.1572 3.9024 L11.1572 11.5264 L7.6035 11.5264 L7.6035 10.3389 C7.4091 10.4873 7.1679 10.6612 6.8867 10.8711 C6.6006 11.0762 6.3291 11.2403 6.0771 11.3575 C5.7295 11.5166 5.3603 11.6338 4.9873 11.711 C4.6084 11.7881 4.1933 11.8233 3.7422 11.8233 C2.6826 11.8233 1.792 11.4961 1.0752 10.835 C0.3584 10.1807 0 9.335 0 8.3116 C0 7.4922 0.1836 6.8213 0.5468 6.3038 C0.9111 5.7862 1.4336 5.377 2.1045 5.0752 C2.7646 4.7774 3.584 4.5625 4.5673 4.4346 C5.5507 4.3116 6.5634 4.2149 7.6191 4.1582 L7.6191 4.0967 C7.6191 3.4776 7.3681 3.0469 6.8662 2.8116 C6.3642 2.5762 5.622 2.4581 4.6435 2.4581 C4.0547 2.4581 3.4257 2.5606 2.7548 2.7754 C2.0888 2.9854 1.6074 3.1495 1.3154 3.2618 Z" transform="translate(53.0723, 11.9648)"/>
   <path style="fill:#161413; fill-rule:nonzero;stroke:none;" d="M7.5997 8.5977 L7.5997 6.2676 C7.1182 6.3086 6.5957 6.3653 6.0332 6.4317 C5.4698 6.504 5.045 6.585 4.753 6.6778 C4.3946 6.7901 4.1231 6.9541 3.9327 7.169 C3.7442 7.3848 3.6524 7.6661 3.6524 8.0196 C3.6524 8.25 3.6719 8.4395 3.7129 8.5879 C3.7491 8.7305 3.8516 8.8692 4.0108 9.002 C4.1582 9.1358 4.3428 9.2325 4.5528 9.294 C4.7676 9.3614 5.0957 9.3916 5.5459 9.3916 C5.9043 9.3916 6.2627 9.3204 6.6319 9.1719 C7 9.0284 7.3233 8.8331 7.5997 8.5977 Z M4.6407 2.4581 C4.0508 2.4581 3.4258 2.5606 2.7549 2.7754 C2.084 2.9854 1.6084 3.1495 1.3164 3.2618 L0.9883 3.2618 L0.9883 0.5586 C1.3672 0.461 1.9825 0.3428 2.8331 0.2051 C3.6827 0.0723 4.5372 0 5.3926 0 C7.4258 0 8.8956 0.3174 9.8018 0.9424 C10.7081 1.5723 11.1582 2.5606 11.1582 3.9024 L11.1582 11.5264 L7.5997 11.5264 L7.5997 10.3389 C7.4053 10.4873 7.17 10.6612 6.8829 10.8711 C6.5957 11.0762 6.3291 11.2403 6.0791 11.3575 C5.7256 11.5166 5.3623 11.6338 4.9834 11.711 C4.6036 11.7881 4.1944 11.8233 3.7383 11.8233 C2.6788 11.8233 1.793 11.4961 1.0752 10.835 C0.3584 10.1807 0 9.335 0 8.3116 C0 7.4922 0.1856 6.8213 0.5489 6.3038 C0.9122 5.7862 1.4288 5.377 2.0997 5.0752 C2.7608 4.7774 3.585 4.5625 4.5684 4.4346 C5.5459 4.3116 6.5655 4.2149 7.6202 4.1582 L7.6202 4.0967 C7.6202 3.4776 7.3692 3.0469 6.8672 2.8116 C6.3604 2.5762 5.6231 2.4581 4.6407 2.4581 Z" transform="translate(41.0732, 11.9648)"/>
   <path style="fill:#161413; fill-rule:nonzero;stroke:none;" d="M19.3867 10.2207 L0.21582 4.7315 L0 3.9991 L13.7031 0 L15.1983 2.75 L15.336 2.7188 C15.3467 2.7188 15.3526 2.7139 15.3623 2.7139 L15.4951 3.2725 L17.334 6.8516 L17.7998 7.3838 L19.3867 10.2207 Z" transform="translate(7.68652, 21.3613)"/>
   <path style="fill:#161413; fill-rule:nonzero;stroke:none;" d="M32.2197 30.5908 C27.1094 31.3135 21.2402 30.6631 15.8232 28.4658 C4.95117 24.0625 0 15.1006 4.75781 8.45409 C7.02637 5.29004 10.8613 3.25195 15.664 2.42187 L14.4092 0 L33.9658 5.01269 L34.1553 5.63769 L20.0068 9.96969 L18.3428 7.08691 L18.2099 7.1123 C17.001 7.37889 15.8232 7.76269 14.7012 8.25979 C12.4482 9.19139 10.6357 10.5488 9.46777 12.1768 C7.23047 15.3057 7.4502 19.1455 10.0723 22.71 L10.1494 22.8125 L10.6357 22.669 L10.8516 23.4014 C12.6797 25.542 15.3721 27.4522 18.7568 28.8242 C23.207 30.6221 28.6094 31.083 32.2197 30.5859 L32.2197 30.5908 Z" transform="translate(-2.94922, 2.69141)"/>
   <path style="fill:#161413; fill-rule:nonzero;stroke:none;" d="M13.4629 2.48926 C9.01852 0.691406 3.61522 0.230469 0.00586 0.727539 L0 0.722656 C5.11622 0 10.9844 0.650391 16.4023 2.84765 C27.2734 7.25097 32.2256 16.2129 27.4629 22.8594 C25.2002 26.0235 20.8935 28.1797 16.0898 29.0088 L15.624 28.4766 L19.2959 24.8975 L13.7851 24.8975 L13.6523 24.3389 C14.8555 24.0723 16.1211 23.6582 17.3027 23.1407 C19.0849 22.4346 20.5762 21.4873 21.7275 20.334 C22.1474 19.9356 22.5058 19.5313 22.793 19.1367 C25.0303 16.0078 24.8154 12.1729 22.1933 8.6084 L22.1172 8.50097 L21.8096 8.59277 L21.6201 7.96777 C19.541 5.77148 16.8525 3.86621 13.4629 2.48926 Z" transform="translate(9.39648, -0.263672)"/>
  </g>
 </g>
</svg>
