<?xml version="1.0" encoding="UTF-8" standalone="no"?>
<svg
   xmlns:dc="http://purl.org/dc/elements/1.1/"
   xmlns:cc="http://creativecommons.org/ns#"
   xmlns:rdf="http://www.w3.org/1999/02/22-rdf-syntax-ns#"
   xmlns:svg="http://www.w3.org/2000/svg"
   xmlns="http://www.w3.org/2000/svg"
   xmlns:sodipodi="http://sodipodi.sourceforge.net/DTD/sodipodi-0.dtd"
   xmlns:inkscape="http://www.inkscape.org/namespaces/inkscape"
   xml:space="preserve"
   width="185"
   height="188"
   style="clip-rule:evenodd;fill-rule:evenodd;image-rendering:optimizeQuality;shape-rendering:geometricPrecision;text-rendering:geometricPrecision"
   viewBox="0 0 1.9270833 1.9583334"
   id="svg2"
   version="1.1"
   inkscape:version="1.0beta1 (32d4812, 2019-09-19)"
   sodipodi:docname="logos.svg">
  <metadata
   id="metadata47">
    <rdf:RDF>
      <cc:Work
   rdf:about="">
        <dc:format>image/svg+xml</dc:format>



        <dc:type
   rdf:resource="http://purl.org/dc/dcmitype/StillImage" />



        <dc:title></dc:title>



      </cc:Work>



    </rdf:RDF>



  </metadata>



  <sodipodi:namedview
   inkscape:pagecheckerboard="true"
   units="px"
   pagecolor="#ffffff"
   bordercolor="#666666"
   borderopacity="1"
   objecttolerance="10"
   gridtolerance="10"
   guidetolerance="10"
   inkscape:pageopacity="0"
   inkscape:pageshadow="2"
   inkscape:window-width="1680"
   inkscape:window-height="907"
   id="namedview45"
   showgrid="false"
   inkscape:zoom="3.7180851"
   inkscape:cx="74.524797"
   inkscape:cy="112.9993"
   inkscape:window-x="0"
   inkscape:window-y="23"
   inkscape:window-maximized="0"
   inkscape:current-layer="svg2"
   inkscape:document-rotation="0"
   showguides="true"
   inkscape:guide-bbox="true">
  <sodipodi:guide
   position="1.2649321,1.2916667"
   orientation="0,1"
   id="guide3893"
   inkscape:label=""
   inkscape:locked="false"
   inkscape:color="rgb(0,0,255)" />

  <inkscape:grid
   type="xygrid"
   id="grid3895" />

  <sodipodi:guide
   position="0.57291667,0.62500001"
   orientation="0,1"
   id="guide3897"
   inkscape:label=""
   inkscape:locked="false"
   inkscape:color="rgb(0,0,255)" />

</sodipodi:namedview>



  <defs
   id="defs4">
    <style
   type="text/css"
   id="style6">
    .fil1 {fill:#004087}
    .fil2 {fill:#FF6700}
    .fil0 {fill:white}
    .fil3 {fill:#004087;fill-rule:nonzero}
    .fil5 {fill:#666666;fill-rule:nonzero}
    .fil4 {fill:#FF6700;fill-rule:nonzero}
   </style>



    <clipPath
   id="id0">
      <rect
   x="2.04408"
   y="5.1222601"
   width="1.69644"
   height="0.124839"
   id="rect9" />



    </clipPath>



  
  
  
  
  
  
  
  
  
</defs>



  

  

  

  

  

  

  

  <g
   id="Layer_x0020_2"
   transform="matrix(0.23043777,0,0,0.23043777,-0.30263501,-0.69493974)"
   style="opacity:1;stop-opacity:1">
    <metadata
   id="CorelCorpID_1Corel-Layer" />



    <path
   class="fil1"
   d="M 3.52062,3.6932 4.03097,3.549535 2.89764,3.252909 1.75871,3.555129 2.046962,3.625003 C 1.88895,3.755078 1.752521,3.917523 1.669163,4.159574 L 1.574718,4.279204 1.725403,4.288294 1.716733,4.165168 C 1.80719,3.939755 1.942768,3.762148 2.100383,3.637948 L 2.275785,3.680464 C 2.219265,3.740267 2.171348,3.808283 2.134013,3.882531 h 0.154193 c 0.126437,-0.200323 0.34976,-0.333417 0.604102,-0.333417 0.254346,0 0.477665,0.133094 0.604102,0.333417 H 3.650603 C 3.615894,3.8135 3.572036,3.749858 3.520623,3.693196 Z"
   id="path17"
   style="fill:#00779c;fill-opacity:1"
   inkscape:connector-curvature="0" />



  </g>
<path
   style="opacity:1;fill:#ff6700;stroke-width:0.230438;stop-opacity:1"
   inkscape:connector-curvature="0"
   id="path21"
   d="m 0.2862054,0.30652439 c -0.005925,0.004531 -0.0133299,0.007224 -0.0213627,0.007224 -0.008034,0 -0.0154384,-0.002694 -0.0213627,-0.007224 H 0.23883 c -0.007632,0 -0.0138744,0.006242 -0.0138744,0.0138726 v 0.0406188 c 0.0165399,0.0311446 0.0432506,0.0560671 0.0756979,0.0703388 0.002514,-0.002514 0.004074,-0.005981 0.004074,-0.009796 V 0.32039697 c 0,-0.007631 -0.006243,-0.0138726 -0.0138726,-0.0138726 z m 0.008312,-0.0279728 c 0,-0.0163873 -0.0132882,-0.0296748 -0.0296749,-0.0296748 -0.0163855,0 -0.0296758,0.0132873 -0.0296758,0.0296748 0,0.0129045 0.008241,0.0238874 0.019746,0.0279728 0.003104,0.001104 0.006446,0.001703 0.00993,0.001703 0.003483,0 0.006824,-5.9914e-4 0.00993,-0.001703 0.0115055,-0.004085 0.0197451,-0.0150683 0.0197447,-0.0279728 z m 0.13202171,0.0418454 v 0.10116126 c 0,0.00327 0.001145,0.006282 0.003055,0.008661 0.0337147,-0.0155481 0.0609925,-0.0426872 0.0767185,-0.076303 v -0.0335188 c 0,-0.007631 -0.006244,-0.0138726 -0.0138726,-0.0138726 h -0.004651 c -0.005925,0.004531 -0.0133308,0.007224 -0.0213627,0.007224 -0.008034,0 -0.0154393,-0.002694 -0.0213627,-0.007224 h -0.004651 c -0.007629,0 -0.0138726,0.006242 -0.0138726,0.0138726 z m 0.0695632,-0.0418454 c 0,-0.0163873 -0.01329,-0.0296748 -0.0296765,-0.0296748 -0.0163864,0 -0.0296765,0.0132873 -0.0296765,0.0296748 0,0.0129045 0.008241,0.0238874 0.0197469,0.0279728 0.003104,0.001104 0.006448,0.001703 0.00993,0.001703 0.003482,0 0.006824,-5.9914e-4 0.00993,-0.001703 0.0115046,-0.004085 0.0197469,-0.0150683 0.0197461,-0.0279728 z"
   class="fil2"
   sodipodi:nodetypes="cscssccsssccssscscscsccsscscscccsscsccc" />
<g
   id="Layer_x0020_5"
   transform="matrix(0.23043777,0,0,0.23043777,-0.30263501,-0.69493974)"
   style="opacity:1;stop-opacity:1">
    <metadata
   id="CorelCorpID_4Corel-Layer" />



    <path
   class="fil1"
   d="m 3.07154,4.13859 c 0,-0.094264 -0.076441,-0.170701 -0.170701,-0.170701 -0.094256,0 -0.170697,0.076437 -0.170697,0.170701 0,0.074221 0.047405,0.137402 0.113583,0.160902 0.017858,0.00634 0.037087,0.0098 0.057114,0.0098 0.020035,0 0.039264,-0.00346 0.057122,-0.0098 C 3.024138,4.275992 3.07154,4.212811 3.07154,4.13859 Z M 2.67141,4.379291 v 0.529181 c 0.069279,0.023709 0.143591,0.036583 0.220894,0.036583 0.083697,0 0.163878,-0.015087 0.237972,-0.042685 V 4.379291 c 0,-0.043886 -0.035913,-0.079799 -0.079803,-0.079799 H 3.023725 C 2.989646,4.325559 2.947048,4.341051 2.900839,4.341051 2.854634,4.341051 2.812036,4.325559 2.777961,4.299492 H 2.751209 c -0.043886,0 -0.079799,0.035913 -0.079799,0.079799 z"
   id="path31"
   style="fill:#00779c;fill-opacity:1"
   inkscape:connector-curvature="0" />



  </g>
<g
   id="Layer_x0020_6"
   transform="matrix(0.23043777,0,0,0.23043777,-0.30263501,-0.69493974)"
   style="opacity:1;stop-opacity:1">
    <metadata
   id="CorelCorpID_5Corel-Layer" />



    <path
   class="fil3"
   d="M 4.34694,4.70042 V 3.766207 c 0,-0.030283 0.010614,-0.056173 0.031842,-0.077394 C 4.40001,3.667585 4.425892,3.65697 4.456176,3.65697 h 0.397346 c 0.113118,0 0.196984,0.024335 0.251602,0.07274 0.056701,0.050732 0.084913,0.124508 0.084913,0.221579 0,0.064713 -0.014244,0.118295 -0.042457,0.160752 C 5.123245,4.152415 5.084942,4.181675 5.032391,4.200049 5.078982,4.2161 5.111344,4.240435 5.129458,4.272789 5.14758,4.303073 5.158706,4.354588 5.162856,4.427588 l 0.00595,0.124244 c 0,0.012169 0,0.02537 0,0.03935 0,0.014232 0.00104,0.027441 0.00311,0.039602 0.00621,0.036244 0.018122,0.059543 0.036496,0.069634 H 4.971818 C 4.961464,4.680225 4.955515,4.658997 4.953444,4.636745 4.949564,4.604379 4.947494,4.582123 4.947494,4.569954 L 4.944384,4.457871 C 4.940244,4.39704 4.928341,4.353552 4.907888,4.327406 4.885884,4.305142 4.846282,4.294016 4.789857,4.294016 H 4.562318 V 4.700418 Z M 6.14779,4.433538 H 6.354101 C 6.355911,4.473924 6.371188,4.504463 6.399404,4.524656 6.429947,4.544849 6.470325,4.55494 6.520802,4.55494 6.557306,4.55494 6.588629,4.54795 6.61477,4.533719 6.639105,4.519479 6.651266,4.500321 6.651266,4.475995 6.651266,4.439751 6.608821,4.412314 6.523908,4.394192 6.487412,4.387982 6.460235,4.382027 6.441849,4.375814 6.334684,4.349672 6.262987,4.318353 6.226483,4.281849 6.186105,4.245349 6.165912,4.196943 6.165912,4.136113 c 0,-0.076882 0.029252,-0.140555 0.088012,-0.191031 0.060827,-0.046598 0.13952,-0.069898 0.236594,-0.069898 0.105354,0 0.189224,0.023299 0.251862,0.069634 0.05876,0.05074 0.090091,0.116484 0.093968,0.197248 H 6.705884 c -0.038303,0 -0.067563,-0.017079 -0.087748,-0.051512 v 0 C 6.609856,4.082534 6.601825,4.074511 6.593801,4.066227 6.56947,4.048105 6.53608,4.039038 6.493624,4.039038 c -0.040378,0 -0.070669,0.00596 -0.091114,0.018122 -0.018122,0.012173 -0.027181,0.030547 -0.027181,0.054618 0,0.032358 0.052547,0.059795 0.157646,0.082059 0.012161,0.00388 0.022776,0.00699 0.031831,0.00906 0.00907,0.00207 0.01761,0.00311 0.025894,0.00311 0.103024,0.02615 0.17472,0.056697 0.215106,0.090862 0.038567,0.036496 0.057724,0.085161 0.057724,0.145732 0,0.089051 -0.032358,0.157906 -0.097067,0.206311 C 6.705884,4.69344 6.61477,4.715691 6.493624,4.715691 6.378175,4.715691 6.292234,4.692404 6.235801,4.645805 6.177041,4.59947 6.147789,4.531651 6.147789,4.4426 Z M 5.872967,4.45166 H 6.02466 C 6.002396,4.536565 5.95994,4.601274 5.897302,4.645802 5.834652,4.6924 5.755711,4.715688 5.660708,4.715688 5.545519,4.715688 5.455432,4.678156 5.39072,4.603345 5.326003,4.530613 5.293645,4.426554 5.293645,4.290912 c 0,-0.129429 0.031323,-0.230646 0.093968,-0.303386 0.064713,-0.074803 0.154799,-0.112343 0.269988,-0.112343 0.121398,0 0.215366,0.036504 0.28215,0.109236 0.064716,0.074811 0.097071,0.178874 0.097071,0.312445 0,0.00802 0,0.015276 0,0.021228 0,0.00621 0,0.010091 0,0.012161 0,0.010098 -0.00104,0.017087 -0.00311,0.021228 H 5.509011 c 0.00207,0.062638 0.017087,0.109236 0.045559,0.13952 0.026146,0.032354 0.065748,0.048669 0.118295,0.048669 0.034433,0 0.063685,-0.00699 0.088016,-0.021228 0.00595,-0.00207 0.01165,-0.00569 0.016567,-0.010614 C 5.782628,4.502648 5.788062,4.497214 5.794275,4.491001 5.796085,4.485051 5.803855,4.477029 5.816791,4.46693 5.829996,4.456835 5.848893,4.451658 5.872964,4.451658 Z M 5.509014,4.215066 H 5.818349 C 5.814469,4.160448 5.800227,4.120062 5.775892,4.093657 5.74975,4.065444 5.712219,4.051212 5.663813,4.051212 c -0.044528,0 -0.081024,0.014232 -0.10924,0.042445 C 5.526101,4.122133 5.511085,4.162519 5.509014,4.215066 Z M 4.562309,4.112042 h 0.25161 c 0.054618,0 0.094996,-0.01113 0.121402,-0.03339 C 4.961463,4.056388 4.974667,4.021963 4.974667,3.975365 4.974667,3.92903 4.961462,3.894601 4.935321,3.872341 4.910986,3.848006 4.87449,3.835845 4.826081,3.835845 H 4.562309 Z"
   id="path35"
   style="fill:#ff6700;fill-opacity:1"
   inkscape:connector-curvature="0" />



  </g>
<g
   id="Layer_x0020_7"
   transform="matrix(0.23043777,0,0,0.23043777,-0.30263501,-0.69493974)"
   style="opacity:1;stop-opacity:1">
    <metadata
   id="CorelCorpID_6Corel-Layer" />



    <path
   class="fil4"
   d="M 6.98393,4.70042 V 3.766207 c 0,-0.030283 0.010614,-0.056173 0.031842,-0.077394 C 7.037,3.667585 7.062882,3.65697 7.093166,3.65697 h 0.382327 c 0.107169,0 0.188965,0.022264 0.245654,0.066784 0.056689,0.048405 0.084913,0.114157 0.084913,0.197252 0,0.052547 -0.011138,0.097067 -0.033402,0.133311 C 7.750406,4.088742 7.719075,4.116183 7.678701,4.136376 7.731248,4.158636 7.771622,4.189959 7.799847,4.230333 7.825989,4.268648 7.83919,4.319388 7.83919,4.382026 7.83919,4.482983 7.806832,4.561935 7.742115,4.618624 7.675331,4.673242 7.581363,4.700419 7.459965,4.700419 H 6.983931 Z m 1.74064,0 V 4.539672 L 9.158409,4.06053 H 8.851929 C 8.823716,4.06053 8.799382,4.05095 8.779189,4.031794 8.758996,4.012385 8.748906,3.988562 8.748906,3.960349 V 3.893565 H 9.410024 V 4.066478 L 8.982394,4.524403 H 9.425292 V 4.700419 H 8.724572 Z M 8.436129,4.294018 C 8.407916,4.30825 8.368314,4.321195 8.317838,4.333361 8.27124,4.343459 8.248204,4.348637 8.248204,4.348637 8.211704,4.358728 8.185302,4.371936 8.169251,4.38798 8.155015,4.410244 8.14803,4.432504 8.14803,4.454767 c 0,0.030287 0.00906,0.054618 0.027177,0.07274 0.018374,0.016307 0.04452,0.024327 0.078953,0.024327 0.056689,0 0.101209,-0.016303 0.133563,-0.048658 C 8.420085,4.47081 8.436128,4.426554 8.436128,4.369865 Z M 8.484538,4.66703 C 8.442089,4.689294 8.39705,4.703014 8.34968,4.708188 c -0.047634,0.00492 -0.089567,0.0075 -0.126063,0.0075 -0.07274,0 -0.136425,-0.019669 -0.191043,-0.059272 C 7.977956,4.617066 7.950775,4.551833 7.950775,4.460719 c 0,-0.084906 0.024858,-0.145472 0.074299,-0.181976 0.049433,-0.036236 0.112854,-0.060571 0.189476,-0.07274 0.010102,0 0.022264,-0.00155 0.036496,-0.00466 C 8.26529,4.198503 8.281341,4.195903 8.299452,4.193833 8.388507,4.181672 8.433023,4.15553 8.433023,4.11488 8.433023,4.084597 8.417236,4.064927 8.385913,4.05586 8.354594,4.0468 8.325858,4.04214 8.299452,4.04214 8.271239,4.04214 8.245869,4.04628 8.223617,4.054313 8.201353,4.062333 8.185302,4.077348 8.175208,4.099612 H 7.972003 C 7.980023,4.036962 8.008247,3.985451 8.056908,3.944813 8.111526,3.898478 8.189443,3.875179 8.290396,3.875179 c 0.113378,0 0.19828,0.019157 0.254717,0.057724 0.05876,0.040386 0.088012,0.097075 0.088012,0.169815 v 0.276197 c 0,0.080764 -0.014756,0.144185 -0.044008,0.189488 C 8.559869,4.613954 8.52492,4.646832 8.4845378,4.667025 Z m -1.2943,-0.6065 h 0.24565 c 0.052551,0 0.091118,-0.00906 0.115189,-0.027441 C 7.575412,4.014967 7.587581,3.986754 7.587581,3.948187 7.587581,3.909872 7.575412,3.881396 7.551077,3.863281 7.530884,3.84697 7.491546,3.838946 7.432786,3.838946 H 7.190239 v 0.221583 z m 0,0.451701 h 0.254709 c 0.056689,0 0.100181,-0.011126 0.130465,-0.03339 C 7.603625,4.458648 7.617869,4.424223 7.617869,4.375813 7.617869,4.327408 7.603625,4.291947 7.575412,4.269683 7.549006,4.24949 7.504743,4.239399 7.441841,4.239399 H 7.190239 V 4.51223 Z"
   id="path39"
   style="fill:#00779c;fill-opacity:1"
   inkscape:connector-curvature="0" />



  </g>
<g
   id="Layer_x0020_8"
   transform="matrix(0.23043777,0,0,0.23043777,-0.30263501,-0.69493974)"
   style="opacity:1;stop-opacity:1">
    <metadata
   id="CorelCorpID_7Corel-Layer" />



    <path
   class="fil5"
   d="m 9.37175,4.9475 c 0,0.01311 -0.00474,0.023547 -0.014213,0.031315 -0.00947,0.00778 -0.02222,0.011661 -0.038244,0.011661 H 9.253722 V 4.904881 h 0.065213 c 0.016744,0 0.02974,0.00358 0.038965,0.010744 0.00923,0.00716 0.01385,0.017784 0.01385,0.031875 z M 6.99744,5.011606 V 5.119059 H 7.042243 V 4.8640833 H 6.99744 v 0.105992 H 6.875783 V 4.8640833 H 6.83098 v 0.254976 H 6.875783 V 5.0116063 Z M 6.686905,5.078263 6.658133,5.049117 C 6.647204,5.059318 6.636161,5.067396 6.624987,5.073345 c -0.011165,0.00595 -0.02452,0.00892 -0.040063,0.00892 -0.012146,0 -0.023378,-0.00237 -0.033693,-0.0071 C 6.540912,5.070435 6.531983,5.063937 6.524455,5.055673 6.516925,5.047423 6.511097,5.037771 6.506971,5.026716 6.502841,5.015669 6.500771,5.003834 6.500771,4.991204 c 0,-0.012622 0.00207,-0.024402 0.0062,-0.035327 0.00413,-0.010933 0.00995,-0.020468 0.017484,-0.028594 0.00753,-0.00813 0.016457,-0.014575 0.026776,-0.019307 0.010315,-0.00474 0.021547,-0.0071 0.033693,-0.0071 0.014571,0 0.027559,0.00292 0.038976,0.00874 0.011406,0.00582 0.02222,0.013476 0.032413,0.022945 L 6.685092,4.899411 C 6.679012,4.893581 6.672588,4.888242 6.665781,4.883383 6.658981,4.878533 6.651584,4.874343 6.643561,4.870816 6.635551,4.867296 6.626754,4.864576 6.617155,4.862626 6.607565,4.860686 6.596946,4.859706 6.585285,4.859706 c -0.019429,0 -0.037154,0.00347 -0.053177,0.010382 C 6.516076,4.876998 6.502242,4.886482 6.49058,4.898501 6.478927,4.910525 6.469879,4.924544 6.463446,4.940576 c -0.00644,0.016028 -0.00965,0.03315 -0.00965,0.05135 0,0.018461 0.00327,0.035705 0.00983,0.051728 0.00656,0.016028 0.015595,0.029929 0.027142,0.041701 0.011535,0.01178 0.025189,0.021075 0.040972,0.027874 0.015784,0.0068 0.033028,0.010197 0.051724,0.010197 0.011906,0 0.02276,-0.00103 0.032598,-0.0031 0.00983,-0.00206 0.018882,-0.0051 0.027134,-0.0091 C 6.651456,5.107216 6.659164,5.102486 6.66633,5.097013 6.67349,5.091553 6.68035,5.085296 6.686901,5.078257 Z M 6.26748,4.9474998 c 0,0.01311 -0.00474,0.023547 -0.014213,0.031315 -0.00947,0.00778 -0.022217,0.011661 -0.038244,0.011661 H 6.149456 v -0.085595 h 0.065209 c 0.016744,0 0.029744,0.00358 0.038965,0.010744 0.00924,0.00716 0.01385,0.017784 0.01385,0.031875 z M 6.321015,5.1190588 6.25218,5.0225268 c 0.00898,-0.00242 0.017173,-0.00589 0.024575,-0.010374 0.00742,-0.0045 0.013791,-0.00996 0.01913,-0.016398 0.00534,-0.00643 0.00954,-0.013839 0.012571,-0.022213 0.00303,-0.00838 0.00456,-0.017913 0.00456,-0.028598 0,-0.012382 -0.00219,-0.023614 -0.00656,-0.033685 -0.00437,-0.010083 -0.01063,-0.018579 -0.01876,-0.025508 -0.00813,-0.00692 -0.018087,-0.012264 -0.02987,-0.016024 -0.01178,-0.00377 -0.024945,-0.00565 -0.039516,-0.00565 H 6.104664 v 0.254976 h 0.044795 v -0.088882 h 0.056102 l 0.062642,0.088882 z M 5.874259,5.0177948 H 5.78648 L 5.830197,4.9158108 Z M 5.85168,4.8622638 H 5.810156 l -0.112185,0.256795 h 0.045894 l 0.02622,-0.061555 H 5.89066 l 0.025854,0.061555 h 0.04735 z m -0.283945,0.00182 H 5.3787 v 0.254976 H 5.569566 V 5.0789888 H 5.423495 V 5.0105168 H 5.551349 V 4.9704458 H 5.423495 v -0.066287 h 0.14424 z m -0.481354,0.066654 c 0,-0.0085 0.00365,-0.015716 0.010929,-0.021669 0.00728,-0.00595 0.017484,-0.00893 0.030598,-0.00893 0.01165,0 0.023193,0.00225 0.034602,0.00674 0.011409,0.00449 0.022945,0.010992 0.034598,0.019488 L 5.221151,4.8924928 C 5.208037,4.8820518 5.194017,4.8740948 5.179084,4.8686388 c -0.014937,-0.00546 -0.031752,-0.0082 -0.050449,-0.0082 -0.01263,0 -0.024287,0.00176 -0.034969,0.00528 -0.010685,0.00352 -0.019854,0.00856 -0.0275,0.015118 -0.00765,0.00655 -0.013661,0.014378 -0.018028,0.023488 -0.00438,0.0091 -0.00656,0.019244 -0.00656,0.030421 0,0.011894 0.00189,0.021972 0.00565,0.030228 0.00377,0.00826 0.00922,0.015307 0.01639,0.021134 0.00717,0.00582 0.016024,0.010681 0.026591,0.014563 0.010559,0.00389 0.022646,0.0074 0.03624,0.010563 0.011894,0.00292 0.021555,0.00571 0.028961,0.00838 0.0074,0.00267 0.013232,0.00552 0.017488,0.00856 0.00425,0.00303 0.00716,0.00637 0.00874,0.01002 0.00157,0.00364 0.00236,0.00776 0.00236,0.012374 0,0.00996 -0.00406,0.01785 -0.012201,0.023677 -0.00813,0.00583 -0.019114,0.00874 -0.032961,0.00874 -0.016024,0 -0.030354,-0.00285 -0.04298,-0.00855 -0.012626,-0.00571 -0.025134,-0.013905 -0.03752,-0.024594 l -0.026957,0.032063 c 0.015303,0.013835 0.031937,0.024102 0.049902,0.030772 0.017972,0.00668 0.036791,0.010012 0.056465,0.010012 0.013358,0 0.025618,-0.00169 0.036784,-0.00509 0.011173,-0.0034 0.020772,-0.00837 0.028776,-0.014937 0.00802,-0.00655 0.014272,-0.014571 0.018764,-0.024039 0.00449,-0.00947 0.00674,-0.020276 0.00674,-0.032421 0,-0.010681 -0.00176,-0.019965 -0.00529,-0.027858 C 5.22,5.0104528 5.21484,5.0035278 5.20804,4.9975828 5.20124,4.9916228 5.192678,4.9865868 5.182367,4.9824568 5.172044,4.9783368 5.16021,4.9745668 5.146855,4.9711728 5.134702,4.9682528 5.12469,4.9654528 5.116804,4.9627928 c -0.00789,-0.00268 -0.014083,-0.00559 -0.018583,-0.00875 -0.0045,-0.00315 -0.00759,-0.00655 -0.00928,-0.010193 -0.0017,-0.00365 -0.00256,-0.00802 -0.00256,-0.013122 z M 4.896416,4.8640838 H 4.707377 v 0.254976 H 4.898239 V 5.0789888 H 4.752168 V 5.0105168 H 4.880026 V 4.9704458 H 4.752168 V 4.9041588 H 4.896416 Z M 4.5097667,4.9475 c 0,0.01311 -0.00474,0.023547 -0.014209,0.031315 -0.00947,0.00778 -0.02222,0.011661 -0.038248,0.011661 H 4.3917427 V 4.904881 h 0.065209 c 0.016752,0 0.029748,0.00358 0.038965,0.010744 0.00924,0.00716 0.01385,0.017784 0.01385,0.031875 z m 0.053535,0.171559 -0.068835,-0.096532 c 0.00898,-0.00242 0.017177,-0.00589 0.024583,-0.010374 0.00741,-0.0045 0.013784,-0.00996 0.019122,-0.016398 0.00535,-0.00643 0.00954,-0.013839 0.012571,-0.022213 0.00304,-0.00838 0.00456,-0.017913 0.00456,-0.028598 0,-0.012382 -0.00219,-0.023614 -0.00656,-0.033685 -0.00437,-0.010083 -0.01063,-0.018579 -0.01876,-0.025508 -0.00813,-0.00692 -0.018087,-0.012264 -0.02987,-0.016024 -0.01178,-0.00377 -0.024941,-0.00565 -0.039516,-0.00565 h -0.113646 v 0.254976 h 0.044795 V 5.030171 h 0.056102 l 0.062646,0.088882 z m 4.86198,0 -0.068835,-0.096532 c 0.00898,-0.00242 0.017169,-0.00589 0.024575,-0.010374 0.00741,-0.0045 0.013784,-0.00996 0.01913,-0.016398 0.00534,-0.00643 0.00954,-0.013839 0.012567,-0.022213 0.00303,-0.00838 0.00456,-0.017913 0.00456,-0.028598 0,-0.012382 -0.00219,-0.023614 -0.00656,-0.033685 -0.00438,-0.010083 -0.01063,-0.018579 -0.01876,-0.025508 -0.00814,-0.00692 -0.018098,-0.012264 -0.029878,-0.016024 -0.011772,-0.00377 -0.024937,-0.00565 -0.039516,-0.00565 h -0.113638 v 0.254976 h 0.044791 V 5.030171 h 0.056102 l 0.062646,0.088882 z M 8.9785261,5.017795 H 8.8907387 L 8.9344631,4.915811 Z M 8.9559474,4.862264 h -0.041531 l -0.112177,0.256795 h 0.045894 l 0.026217,-0.061555 h 0.120575 l 0.025858,0.061555 h 0.04735 z m -0.35715,0.155531 H 8.5110061 L 8.5547266,4.915811 Z M 8.5762108,4.862264 h -0.041524 l -0.112185,0.256795 h 0.045894 l 0.026224,-0.061555 h 0.120571 l 0.025862,0.061555 h 0.04735 z M 8.2329038,4.903792 8.0824668,5.085914 V 5.11906 h 0.208717 V 5.079351 H 8.1407428 L 8.2911838,4.897233 V 4.864083 H 8.0871958 V 4.903792 Z M 7.8611798,5.017796 H 7.7733928 L 7.8171058,4.915812 Z M 7.8385928,4.862265 H 7.7970688 L 7.6848838,5.11906 h 0.045902 l 0.026217,-0.061555 h 0.120575 l 0.025854,0.061555 h 0.04735 z M 7.4650498,5.079352 H 7.3907468 V 5.009419 h 0.071028 c 0.017724,0 0.030905,0.00304 0.039524,0.00911 0.00862,0.00607 0.012925,0.014575 0.012925,0.025496 0,0.011654 -0.00437,0.020461 -0.01311,0.026413 -0.00874,0.00594 -0.020764,0.00892 -0.036063,0.00892 z M 7.45194,4.9715406 H 7.390747 v -0.067748 h 0.064472 c 0.014571,0 0.025673,0.00285 0.033327,0.00856 0.00765,0.0057 0.01148,0.013776 0.01148,0.024213 0,0.011906 -0.00438,0.020705 -0.013118,0.026413 -0.00874,0.00571 -0.020398,0.00856 -0.034969,0.00856 z M 7.46105,4.8640836 H 7.34668 v 0.254976 h 0.118012 c 0.014087,0 0.026953,-0.00151 0.038614,-0.00456 0.011658,-0.00304 0.021614,-0.00753 0.02987,-0.013476 0.00826,-0.00594 0.014626,-0.013287 0.01911,-0.022035 0.0045,-0.00874 0.00674,-0.018823 0.00674,-0.030228 0,-0.00874 -0.00121,-0.016449 -0.00363,-0.02313 -0.00243,-0.00668 -0.00589,-0.012449 -0.010386,-0.017295 -0.0045,-0.00486 -0.00983,-0.00906 -0.016024,-0.012579 -0.0062,-0.00352 -0.013059,-0.00661 -0.020579,-0.00928 0.0046,-0.00243 0.00916,-0.00534 0.013657,-0.00874 0.00449,-0.0034 0.00837,-0.00734 0.011653,-0.011847 0.00327,-0.00448 0.00594,-0.00977 0.00801,-0.015842 0.00207,-0.00607 0.00309,-0.012992 0.00309,-0.02076 0,-0.020154 -0.00752,-0.036063 -0.022575,-0.047716 C 7.507179,4.8699136 7.486789,4.8640876 7.461045,4.8640876 Z"
   id="path43"
   inkscape:connector-curvature="0" />



  </g>
<path
   class="fil2"
   d="m 0.17545193,0.23739494 c -0.004596,0.0166178 -0.007051,0.0341211 -0.007051,0.0521997 0,0.10793198 0.0875293,0.19546124 0.19546193,0.19546124 0.10793198,0 0.19546123,-0.0875293 0.19546123,-0.19546124 0,-0.0180785 -0.002456,-0.0355817 -0.007052,-0.0521997 h -0.032371 c 0.005486,0.0164019 0.008458,0.0339534 0.008458,0.0521997 0,0.0908342 -0.0736629,0.16449639 -0.16449639,0.16449639 -0.0908351,0 -0.16449801,-0.073662 -0.16449801,-0.16449639 0,-0.0182463 0.002972,-0.0357976 0.008458,-0.0521997 z"
   id="path3848"
   inkscape:connector-curvature="0"
   style="opacity:1;fill:#00779c;fill-opacity:1;stroke-width:0.230438;stop-opacity:1"
   sodipodi:nodetypes="csssccsssccc" />




<g
   style="clip-rule:evenodd;opacity:1;fill-rule:evenodd;image-rendering:optimizeQuality;shape-rendering:geometricPrecision;text-rendering:geometricPrecision;stop-opacity:1;fill:#5a5a5a;fill-opacity:1"
   transform="matrix(0.23043777,0,0,0.23043777,-0.30263501,-0.02827309)"
   id="Layer_x0020_2-0">
  <metadata
   id="CorelCorpID_1Corel-Layer-4" />

  <path
   inkscape:connector-curvature="0"
   style="fill:#5a5a5a;fill-opacity:1"
   id="path17-2"
   d="M 3.52062,3.6932 4.03097,3.549535 2.89764,3.252909 1.75871,3.555129 2.046962,3.625003 C 1.88895,3.755078 1.752521,3.917523 1.669163,4.159574 L 1.574718,4.279204 1.725403,4.288294 1.716733,4.165168 C 1.80719,3.939755 1.942768,3.762148 2.100383,3.637948 L 2.275785,3.680464 C 2.219265,3.740267 2.171348,3.808283 2.134013,3.882531 h 0.154193 c 0.126437,-0.200323 0.34976,-0.333417 0.604102,-0.333417 0.254346,0 0.477665,0.133094 0.604102,0.333417 H 3.650603 C 3.615894,3.8135 3.572036,3.749858 3.520623,3.693196 Z"
   class="fil1" />

</g>

<path
   sodipodi:nodetypes="cscssccsssccssscscscsccsscscscccsscsccc"
   class="fil2"
   d="m 0.2862054,0.97319104 c -0.005925,0.004531 -0.0133299,0.007224 -0.0213627,0.007224 -0.008034,0 -0.0154384,-0.002694 -0.0213627,-0.007224 H 0.23883 c -0.007632,0 -0.0138744,0.006242 -0.0138744,0.0138726 v 0.0406188 c 0.0165399,0.031145 0.0432506,0.056067 0.0756979,0.070339 0.002514,-0.00251 0.004074,-0.00598 0.004074,-0.0098 V 0.98706362 c 0,-0.007631 -0.006243,-0.0138726 -0.0138726,-0.0138726 z m 0.008312,-0.0279728 c 0,-0.0163873 -0.0132882,-0.0296748 -0.0296749,-0.0296748 -0.0163855,0 -0.0296758,0.0132873 -0.0296758,0.0296748 0,0.0129045 0.008241,0.0238874 0.019746,0.0279728 0.003104,0.001104 0.006446,0.001703 0.00993,0.001703 0.003483,0 0.006824,-5.9914e-4 0.00993,-0.001703 0.0115055,-0.004085 0.0197451,-0.0150683 0.0197447,-0.0279728 z m 0.13202171,0.0418454 V 1.0882249 c 0,0.00327 0.001145,0.00628 0.003055,0.00866 0.0337147,-0.015548 0.0609925,-0.042687 0.0767185,-0.076303 V 0.9870641 c 0,-0.007631 -0.006244,-0.0138726 -0.0138726,-0.0138726 h -0.004651 c -0.005925,0.004531 -0.0133308,0.007224 -0.0213627,0.007224 -0.008034,0 -0.0154393,-0.002694 -0.0213627,-0.007224 h -0.004651 c -0.007629,0 -0.0138726,0.006242 -0.0138726,0.0138726 z m 0.0695632,-0.0418454 c 0,-0.0163873 -0.01329,-0.0296748 -0.0296765,-0.0296748 -0.0163864,0 -0.0296765,0.0132873 -0.0296765,0.0296748 0,0.0129045 0.008241,0.0238874 0.0197469,0.0279728 0.003104,0.001104 0.006448,0.001703 0.00993,0.001703 0.003482,0 0.006824,-5.9914e-4 0.00993,-0.001703 0.0115046,-0.004085 0.0197469,-0.0150683 0.0197461,-0.0279728 z"
   id="path21-3"
   inkscape:connector-curvature="0"
   style="clip-rule:evenodd;opacity:1;fill:#bdbdbd;fill-rule:evenodd;stroke-width:0.230438;image-rendering:optimizeQuality;shape-rendering:geometricPrecision;text-rendering:geometricPrecision;stop-opacity:1;fill-opacity:1" />

<g
   style="clip-rule:evenodd;opacity:1;fill-rule:evenodd;image-rendering:optimizeQuality;shape-rendering:geometricPrecision;text-rendering:geometricPrecision;stop-opacity:1;fill:#5a5a5a;fill-opacity:1"
   transform="matrix(0.23043777,0,0,0.23043777,-0.30263501,-0.02827309)"
   id="Layer_x0020_5-3">
  <metadata
   id="CorelCorpID_4Corel-Layer-7" />

  <path
   inkscape:connector-curvature="0"
   style="fill:#5a5a5a;fill-opacity:1"
   id="path31-0"
   d="m 3.07154,4.13859 c 0,-0.094264 -0.076441,-0.170701 -0.170701,-0.170701 -0.094256,0 -0.170697,0.076437 -0.170697,0.170701 0,0.074221 0.047405,0.137402 0.113583,0.160902 0.017858,0.00634 0.037087,0.0098 0.057114,0.0098 0.020035,0 0.039264,-0.00346 0.057122,-0.0098 C 3.024138,4.275992 3.07154,4.212811 3.07154,4.13859 Z M 2.67141,4.379291 v 0.529181 c 0.069279,0.023709 0.143591,0.036583 0.220894,0.036583 0.083697,0 0.163878,-0.015087 0.237972,-0.042685 V 4.379291 c 0,-0.043886 -0.035913,-0.079799 -0.079803,-0.079799 H 3.023725 C 2.989646,4.325559 2.947048,4.341051 2.900839,4.341051 2.854634,4.341051 2.812036,4.325559 2.777961,4.299492 H 2.751209 c -0.043886,0 -0.079799,0.035913 -0.079799,0.079799 z"
   class="fil1" />

</g>

<g
   style="clip-rule:evenodd;opacity:1;fill-rule:evenodd;image-rendering:optimizeQuality;shape-rendering:geometricPrecision;text-rendering:geometricPrecision;stop-opacity:1;fill:#bdbdbd;fill-opacity:1"
   transform="matrix(0.23043777,0,0,0.23043777,-0.30263501,-0.02827309)"
   id="Layer_x0020_6-0">
  <metadata
   id="CorelCorpID_5Corel-Layer-1" />

  <path
   inkscape:connector-curvature="0"
   style="fill:#bdbdbd;fill-opacity:1"
   id="path35-0"
   d="M 4.34694,4.70042 V 3.766207 c 0,-0.030283 0.010614,-0.056173 0.031842,-0.077394 C 4.40001,3.667585 4.425892,3.65697 4.456176,3.65697 h 0.397346 c 0.113118,0 0.196984,0.024335 0.251602,0.07274 0.056701,0.050732 0.084913,0.124508 0.084913,0.221579 0,0.064713 -0.014244,0.118295 -0.042457,0.160752 C 5.123245,4.152415 5.084942,4.181675 5.032391,4.200049 5.078982,4.2161 5.111344,4.240435 5.129458,4.272789 5.14758,4.303073 5.158706,4.354588 5.162856,4.427588 l 0.00595,0.124244 c 0,0.012169 0,0.02537 0,0.03935 0,0.014232 0.00104,0.027441 0.00311,0.039602 0.00621,0.036244 0.018122,0.059543 0.036496,0.069634 H 4.971818 C 4.961464,4.680225 4.955515,4.658997 4.953444,4.636745 4.949564,4.604379 4.947494,4.582123 4.947494,4.569954 L 4.944384,4.457871 C 4.940244,4.39704 4.928341,4.353552 4.907888,4.327406 4.885884,4.305142 4.846282,4.294016 4.789857,4.294016 H 4.562318 V 4.700418 Z M 6.14779,4.433538 H 6.354101 C 6.355911,4.473924 6.371188,4.504463 6.399404,4.524656 6.429947,4.544849 6.470325,4.55494 6.520802,4.55494 6.557306,4.55494 6.588629,4.54795 6.61477,4.533719 6.639105,4.519479 6.651266,4.500321 6.651266,4.475995 6.651266,4.439751 6.608821,4.412314 6.523908,4.394192 6.487412,4.387982 6.460235,4.382027 6.441849,4.375814 6.334684,4.349672 6.262987,4.318353 6.226483,4.281849 6.186105,4.245349 6.165912,4.196943 6.165912,4.136113 c 0,-0.076882 0.029252,-0.140555 0.088012,-0.191031 0.060827,-0.046598 0.13952,-0.069898 0.236594,-0.069898 0.105354,0 0.189224,0.023299 0.251862,0.069634 0.05876,0.05074 0.090091,0.116484 0.093968,0.197248 H 6.705884 c -0.038303,0 -0.067563,-0.017079 -0.087748,-0.051512 v 0 C 6.609856,4.082534 6.601825,4.074511 6.593801,4.066227 6.56947,4.048105 6.53608,4.039038 6.493624,4.039038 c -0.040378,0 -0.070669,0.00596 -0.091114,0.018122 -0.018122,0.012173 -0.027181,0.030547 -0.027181,0.054618 0,0.032358 0.052547,0.059795 0.157646,0.082059 0.012161,0.00388 0.022776,0.00699 0.031831,0.00906 0.00907,0.00207 0.01761,0.00311 0.025894,0.00311 0.103024,0.02615 0.17472,0.056697 0.215106,0.090862 0.038567,0.036496 0.057724,0.085161 0.057724,0.145732 0,0.089051 -0.032358,0.157906 -0.097067,0.206311 C 6.705884,4.69344 6.61477,4.715691 6.493624,4.715691 6.378175,4.715691 6.292234,4.692404 6.235801,4.645805 6.177041,4.59947 6.147789,4.531651 6.147789,4.4426 Z M 5.872967,4.45166 H 6.02466 C 6.002396,4.536565 5.95994,4.601274 5.897302,4.645802 5.834652,4.6924 5.755711,4.715688 5.660708,4.715688 5.545519,4.715688 5.455432,4.678156 5.39072,4.603345 5.326003,4.530613 5.293645,4.426554 5.293645,4.290912 c 0,-0.129429 0.031323,-0.230646 0.093968,-0.303386 0.064713,-0.074803 0.154799,-0.112343 0.269988,-0.112343 0.121398,0 0.215366,0.036504 0.28215,0.109236 0.064716,0.074811 0.097071,0.178874 0.097071,0.312445 0,0.00802 0,0.015276 0,0.021228 0,0.00621 0,0.010091 0,0.012161 0,0.010098 -0.00104,0.017087 -0.00311,0.021228 H 5.509011 c 0.00207,0.062638 0.017087,0.109236 0.045559,0.13952 0.026146,0.032354 0.065748,0.048669 0.118295,0.048669 0.034433,0 0.063685,-0.00699 0.088016,-0.021228 0.00595,-0.00207 0.01165,-0.00569 0.016567,-0.010614 C 5.782628,4.502648 5.788062,4.497214 5.794275,4.491001 5.796085,4.485051 5.803855,4.477029 5.816791,4.46693 5.829996,4.456835 5.848893,4.451658 5.872964,4.451658 Z M 5.509014,4.215066 H 5.818349 C 5.814469,4.160448 5.800227,4.120062 5.775892,4.093657 5.74975,4.065444 5.712219,4.051212 5.663813,4.051212 c -0.044528,0 -0.081024,0.014232 -0.10924,0.042445 C 5.526101,4.122133 5.511085,4.162519 5.509014,4.215066 Z M 4.562309,4.112042 h 0.25161 c 0.054618,0 0.094996,-0.01113 0.121402,-0.03339 C 4.961463,4.056388 4.974667,4.021963 4.974667,3.975365 4.974667,3.92903 4.961462,3.894601 4.935321,3.872341 4.910986,3.848006 4.87449,3.835845 4.826081,3.835845 H 4.562309 Z"
   class="fil3" />

</g>

<g
   style="clip-rule:evenodd;opacity:1;fill-rule:evenodd;image-rendering:optimizeQuality;shape-rendering:geometricPrecision;text-rendering:geometricPrecision;stop-opacity:1;fill:#5a5a5a;fill-opacity:1"
   transform="matrix(0.23043777,0,0,0.23043777,-0.30263501,-0.02827309)"
   id="Layer_x0020_7-3">
  <metadata
   id="CorelCorpID_6Corel-Layer-0" />

  <path
   inkscape:connector-curvature="0"
   style="fill:#5a5a5a;fill-opacity:1"
   id="path39-0"
   d="M 6.98393,4.70042 V 3.766207 c 0,-0.030283 0.010614,-0.056173 0.031842,-0.077394 C 7.037,3.667585 7.062882,3.65697 7.093166,3.65697 h 0.382327 c 0.107169,0 0.188965,0.022264 0.245654,0.066784 0.056689,0.048405 0.084913,0.114157 0.084913,0.197252 0,0.052547 -0.011138,0.097067 -0.033402,0.133311 C 7.750406,4.088742 7.719075,4.116183 7.678701,4.136376 7.731248,4.158636 7.771622,4.189959 7.799847,4.230333 7.825989,4.268648 7.83919,4.319388 7.83919,4.382026 7.83919,4.482983 7.806832,4.561935 7.742115,4.618624 7.675331,4.673242 7.581363,4.700419 7.459965,4.700419 H 6.983931 Z m 1.74064,0 V 4.539672 L 9.158409,4.06053 H 8.851929 C 8.823716,4.06053 8.799382,4.05095 8.779189,4.031794 8.758996,4.012385 8.748906,3.988562 8.748906,3.960349 V 3.893565 H 9.410024 V 4.066478 L 8.982394,4.524403 H 9.425292 V 4.700419 H 8.724572 Z M 8.436129,4.294018 C 8.407916,4.30825 8.368314,4.321195 8.317838,4.333361 8.27124,4.343459 8.248204,4.348637 8.248204,4.348637 8.211704,4.358728 8.185302,4.371936 8.169251,4.38798 8.155015,4.410244 8.14803,4.432504 8.14803,4.454767 c 0,0.030287 0.00906,0.054618 0.027177,0.07274 0.018374,0.016307 0.04452,0.024327 0.078953,0.024327 0.056689,0 0.101209,-0.016303 0.133563,-0.048658 C 8.420085,4.47081 8.436128,4.426554 8.436128,4.369865 Z M 8.484538,4.66703 C 8.442089,4.689294 8.39705,4.703014 8.34968,4.708188 c -0.047634,0.00492 -0.089567,0.0075 -0.126063,0.0075 -0.07274,0 -0.136425,-0.019669 -0.191043,-0.059272 C 7.977956,4.617066 7.950775,4.551833 7.950775,4.460719 c 0,-0.084906 0.024858,-0.145472 0.074299,-0.181976 0.049433,-0.036236 0.112854,-0.060571 0.189476,-0.07274 0.010102,0 0.022264,-0.00155 0.036496,-0.00466 C 8.26529,4.198503 8.281341,4.195903 8.299452,4.193833 8.388507,4.181672 8.433023,4.15553 8.433023,4.11488 8.433023,4.084597 8.417236,4.064927 8.385913,4.05586 8.354594,4.0468 8.325858,4.04214 8.299452,4.04214 8.271239,4.04214 8.245869,4.04628 8.223617,4.054313 8.201353,4.062333 8.185302,4.077348 8.175208,4.099612 H 7.972003 C 7.980023,4.036962 8.008247,3.985451 8.056908,3.944813 8.111526,3.898478 8.189443,3.875179 8.290396,3.875179 c 0.113378,0 0.19828,0.019157 0.254717,0.057724 0.05876,0.040386 0.088012,0.097075 0.088012,0.169815 v 0.276197 c 0,0.080764 -0.014756,0.144185 -0.044008,0.189488 C 8.559869,4.613954 8.52492,4.646832 8.4845378,4.667025 Z m -1.2943,-0.6065 h 0.24565 c 0.052551,0 0.091118,-0.00906 0.115189,-0.027441 C 7.575412,4.014967 7.587581,3.986754 7.587581,3.948187 7.587581,3.909872 7.575412,3.881396 7.551077,3.863281 7.530884,3.84697 7.491546,3.838946 7.432786,3.838946 H 7.190239 v 0.221583 z m 0,0.451701 h 0.254709 c 0.056689,0 0.100181,-0.011126 0.130465,-0.03339 C 7.603625,4.458648 7.617869,4.424223 7.617869,4.375813 7.617869,4.327408 7.603625,4.291947 7.575412,4.269683 7.549006,4.24949 7.504743,4.239399 7.441841,4.239399 H 7.190239 V 4.51223 Z"
   class="fil4" />

</g>

<g
   style="clip-rule:evenodd;opacity:1;fill-rule:evenodd;image-rendering:optimizeQuality;shape-rendering:geometricPrecision;text-rendering:geometricPrecision;stop-opacity:1"
   transform="matrix(0.23043777,0,0,0.23043777,-0.30263501,-0.02827309)"
   id="Layer_x0020_8-3">
  <metadata
   id="CorelCorpID_7Corel-Layer-8" />

  <path
   inkscape:connector-curvature="0"
   id="path43-3"
   d="m 9.37175,4.9475 c 0,0.01311 -0.00474,0.023547 -0.014213,0.031315 -0.00947,0.00778 -0.02222,0.011661 -0.038244,0.011661 H 9.253722 V 4.904881 h 0.065213 c 0.016744,0 0.02974,0.00358 0.038965,0.010744 0.00923,0.00716 0.01385,0.017784 0.01385,0.031875 z M 6.99744,5.011606 V 5.119059 H 7.042243 V 4.8640833 H 6.99744 v 0.105992 H 6.875783 V 4.8640833 H 6.83098 v 0.254976 H 6.875783 V 5.0116063 Z M 6.686905,5.078263 6.658133,5.049117 C 6.647204,5.059318 6.636161,5.067396 6.624987,5.073345 c -0.011165,0.00595 -0.02452,0.00892 -0.040063,0.00892 -0.012146,0 -0.023378,-0.00237 -0.033693,-0.0071 C 6.540912,5.070435 6.531983,5.063937 6.524455,5.055673 6.516925,5.047423 6.511097,5.037771 6.506971,5.026716 6.502841,5.015669 6.500771,5.003834 6.500771,4.991204 c 0,-0.012622 0.00207,-0.024402 0.0062,-0.035327 0.00413,-0.010933 0.00995,-0.020468 0.017484,-0.028594 0.00753,-0.00813 0.016457,-0.014575 0.026776,-0.019307 0.010315,-0.00474 0.021547,-0.0071 0.033693,-0.0071 0.014571,0 0.027559,0.00292 0.038976,0.00874 0.011406,0.00582 0.02222,0.013476 0.032413,0.022945 L 6.685092,4.899411 C 6.679012,4.893581 6.672588,4.888242 6.665781,4.883383 6.658981,4.878533 6.651584,4.874343 6.643561,4.870816 6.635551,4.867296 6.626754,4.864576 6.617155,4.862626 6.607565,4.860686 6.596946,4.859706 6.585285,4.859706 c -0.019429,0 -0.037154,0.00347 -0.053177,0.010382 C 6.516076,4.876998 6.502242,4.886482 6.49058,4.898501 6.478927,4.910525 6.469879,4.924544 6.463446,4.940576 c -0.00644,0.016028 -0.00965,0.03315 -0.00965,0.05135 0,0.018461 0.00327,0.035705 0.00983,0.051728 0.00656,0.016028 0.015595,0.029929 0.027142,0.041701 0.011535,0.01178 0.025189,0.021075 0.040972,0.027874 0.015784,0.0068 0.033028,0.010197 0.051724,0.010197 0.011906,0 0.02276,-0.00103 0.032598,-0.0031 0.00983,-0.00206 0.018882,-0.0051 0.027134,-0.0091 C 6.651456,5.107216 6.659164,5.102486 6.66633,5.097013 6.67349,5.091553 6.68035,5.085296 6.686901,5.078257 Z M 6.26748,4.9474998 c 0,0.01311 -0.00474,0.023547 -0.014213,0.031315 -0.00947,0.00778 -0.022217,0.011661 -0.038244,0.011661 H 6.149456 v -0.085595 h 0.065209 c 0.016744,0 0.029744,0.00358 0.038965,0.010744 0.00924,0.00716 0.01385,0.017784 0.01385,0.031875 z M 6.321015,5.1190588 6.25218,5.0225268 c 0.00898,-0.00242 0.017173,-0.00589 0.024575,-0.010374 0.00742,-0.0045 0.013791,-0.00996 0.01913,-0.016398 0.00534,-0.00643 0.00954,-0.013839 0.012571,-0.022213 0.00303,-0.00838 0.00456,-0.017913 0.00456,-0.028598 0,-0.012382 -0.00219,-0.023614 -0.00656,-0.033685 -0.00437,-0.010083 -0.01063,-0.018579 -0.01876,-0.025508 -0.00813,-0.00692 -0.018087,-0.012264 -0.02987,-0.016024 -0.01178,-0.00377 -0.024945,-0.00565 -0.039516,-0.00565 H 6.104664 v 0.254976 h 0.044795 v -0.088882 h 0.056102 l 0.062642,0.088882 z M 5.874259,5.0177948 H 5.78648 L 5.830197,4.9158108 Z M 5.85168,4.8622638 H 5.810156 l -0.112185,0.256795 h 0.045894 l 0.02622,-0.061555 H 5.89066 l 0.025854,0.061555 h 0.04735 z m -0.283945,0.00182 H 5.3787 v 0.254976 H 5.569566 V 5.0789888 H 5.423495 V 5.0105168 H 5.551349 V 4.9704458 H 5.423495 v -0.066287 h 0.14424 z m -0.481354,0.066654 c 0,-0.0085 0.00365,-0.015716 0.010929,-0.021669 0.00728,-0.00595 0.017484,-0.00893 0.030598,-0.00893 0.01165,0 0.023193,0.00225 0.034602,0.00674 0.011409,0.00449 0.022945,0.010992 0.034598,0.019488 L 5.221151,4.8924928 C 5.208037,4.8820518 5.194017,4.8740948 5.179084,4.8686388 c -0.014937,-0.00546 -0.031752,-0.0082 -0.050449,-0.0082 -0.01263,0 -0.024287,0.00176 -0.034969,0.00528 -0.010685,0.00352 -0.019854,0.00856 -0.0275,0.015118 -0.00765,0.00655 -0.013661,0.014378 -0.018028,0.023488 -0.00438,0.0091 -0.00656,0.019244 -0.00656,0.030421 0,0.011894 0.00189,0.021972 0.00565,0.030228 0.00377,0.00826 0.00922,0.015307 0.01639,0.021134 0.00717,0.00582 0.016024,0.010681 0.026591,0.014563 0.010559,0.00389 0.022646,0.0074 0.03624,0.010563 0.011894,0.00292 0.021555,0.00571 0.028961,0.00838 0.0074,0.00267 0.013232,0.00552 0.017488,0.00856 0.00425,0.00303 0.00716,0.00637 0.00874,0.01002 0.00157,0.00364 0.00236,0.00776 0.00236,0.012374 0,0.00996 -0.00406,0.01785 -0.012201,0.023677 -0.00813,0.00583 -0.019114,0.00874 -0.032961,0.00874 -0.016024,0 -0.030354,-0.00285 -0.04298,-0.00855 -0.012626,-0.00571 -0.025134,-0.013905 -0.03752,-0.024594 l -0.026957,0.032063 c 0.015303,0.013835 0.031937,0.024102 0.049902,0.030772 0.017972,0.00668 0.036791,0.010012 0.056465,0.010012 0.013358,0 0.025618,-0.00169 0.036784,-0.00509 0.011173,-0.0034 0.020772,-0.00837 0.028776,-0.014937 0.00802,-0.00655 0.014272,-0.014571 0.018764,-0.024039 0.00449,-0.00947 0.00674,-0.020276 0.00674,-0.032421 0,-0.010681 -0.00176,-0.019965 -0.00529,-0.027858 C 5.22,5.0104528 5.21484,5.0035278 5.20804,4.9975828 5.20124,4.9916228 5.192678,4.9865868 5.182367,4.9824568 5.172044,4.9783368 5.16021,4.9745668 5.146855,4.9711728 5.134702,4.9682528 5.12469,4.9654528 5.116804,4.9627928 c -0.00789,-0.00268 -0.014083,-0.00559 -0.018583,-0.00875 -0.0045,-0.00315 -0.00759,-0.00655 -0.00928,-0.010193 -0.0017,-0.00365 -0.00256,-0.00802 -0.00256,-0.013122 z M 4.896416,4.8640838 H 4.707377 v 0.254976 H 4.898239 V 5.0789888 H 4.752168 V 5.0105168 H 4.880026 V 4.9704458 H 4.752168 V 4.9041588 H 4.896416 Z M 4.5097667,4.9475 c 0,0.01311 -0.00474,0.023547 -0.014209,0.031315 -0.00947,0.00778 -0.02222,0.011661 -0.038248,0.011661 H 4.3917427 V 4.904881 h 0.065209 c 0.016752,0 0.029748,0.00358 0.038965,0.010744 0.00924,0.00716 0.01385,0.017784 0.01385,0.031875 z m 0.053535,0.171559 -0.068835,-0.096532 c 0.00898,-0.00242 0.017177,-0.00589 0.024583,-0.010374 0.00741,-0.0045 0.013784,-0.00996 0.019122,-0.016398 0.00535,-0.00643 0.00954,-0.013839 0.012571,-0.022213 0.00304,-0.00838 0.00456,-0.017913 0.00456,-0.028598 0,-0.012382 -0.00219,-0.023614 -0.00656,-0.033685 -0.00437,-0.010083 -0.01063,-0.018579 -0.01876,-0.025508 -0.00813,-0.00692 -0.018087,-0.012264 -0.02987,-0.016024 -0.01178,-0.00377 -0.024941,-0.00565 -0.039516,-0.00565 h -0.113646 v 0.254976 h 0.044795 V 5.030171 h 0.056102 l 0.062646,0.088882 z m 4.86198,0 -0.068835,-0.096532 c 0.00898,-0.00242 0.017169,-0.00589 0.024575,-0.010374 0.00741,-0.0045 0.013784,-0.00996 0.01913,-0.016398 0.00534,-0.00643 0.00954,-0.013839 0.012567,-0.022213 0.00303,-0.00838 0.00456,-0.017913 0.00456,-0.028598 0,-0.012382 -0.00219,-0.023614 -0.00656,-0.033685 -0.00438,-0.010083 -0.01063,-0.018579 -0.01876,-0.025508 -0.00814,-0.00692 -0.018098,-0.012264 -0.029878,-0.016024 -0.011772,-0.00377 -0.024937,-0.00565 -0.039516,-0.00565 h -0.113638 v 0.254976 h 0.044791 V 5.030171 h 0.056102 l 0.062646,0.088882 z M 8.9785261,5.017795 H 8.8907387 L 8.9344631,4.915811 Z M 8.9559474,4.862264 h -0.041531 l -0.112177,0.256795 h 0.045894 l 0.026217,-0.061555 h 0.120575 l 0.025858,0.061555 h 0.04735 z m -0.35715,0.155531 H 8.5110061 L 8.5547266,4.915811 Z M 8.5762108,4.862264 h -0.041524 l -0.112185,0.256795 h 0.045894 l 0.026224,-0.061555 h 0.120571 l 0.025862,0.061555 h 0.04735 z M 8.2329038,4.903792 8.0824668,5.085914 V 5.11906 h 0.208717 V 5.079351 H 8.1407428 L 8.2911838,4.897233 V 4.864083 H 8.0871958 V 4.903792 Z M 7.8611798,5.017796 H 7.7733928 L 7.8171058,4.915812 Z M 7.8385928,4.862265 H 7.7970688 L 7.6848838,5.11906 h 0.045902 l 0.026217,-0.061555 h 0.120575 l 0.025854,0.061555 h 0.04735 z M 7.4650498,5.079352 H 7.3907468 V 5.009419 h 0.071028 c 0.017724,0 0.030905,0.00304 0.039524,0.00911 0.00862,0.00607 0.012925,0.014575 0.012925,0.025496 0,0.011654 -0.00437,0.020461 -0.01311,0.026413 -0.00874,0.00594 -0.020764,0.00892 -0.036063,0.00892 z M 7.45194,4.9715406 H 7.390747 v -0.067748 h 0.064472 c 0.014571,0 0.025673,0.00285 0.033327,0.00856 0.00765,0.0057 0.01148,0.013776 0.01148,0.024213 0,0.011906 -0.00438,0.020705 -0.013118,0.026413 -0.00874,0.00571 -0.020398,0.00856 -0.034969,0.00856 z M 7.46105,4.8640836 H 7.34668 v 0.254976 h 0.118012 c 0.014087,0 0.026953,-0.00151 0.038614,-0.00456 0.011658,-0.00304 0.021614,-0.00753 0.02987,-0.013476 0.00826,-0.00594 0.014626,-0.013287 0.01911,-0.022035 0.0045,-0.00874 0.00674,-0.018823 0.00674,-0.030228 0,-0.00874 -0.00121,-0.016449 -0.00363,-0.02313 -0.00243,-0.00668 -0.00589,-0.012449 -0.010386,-0.017295 -0.0045,-0.00486 -0.00983,-0.00906 -0.016024,-0.012579 -0.0062,-0.00352 -0.013059,-0.00661 -0.020579,-0.00928 0.0046,-0.00243 0.00916,-0.00534 0.013657,-0.00874 0.00449,-0.0034 0.00837,-0.00734 0.011653,-0.011847 0.00327,-0.00448 0.00594,-0.00977 0.00801,-0.015842 0.00207,-0.00607 0.00309,-0.012992 0.00309,-0.02076 0,-0.020154 -0.00752,-0.036063 -0.022575,-0.047716 C 7.507179,4.8699136 7.486789,4.8640876 7.461045,4.8640876 Z"
   class="fil5" />

</g>

<path
   sodipodi:nodetypes="csssccsssccc"
   style="clip-rule:evenodd;opacity:1;fill:#5a5a5a;fill-opacity:1;fill-rule:evenodd;stroke-width:0.230438;image-rendering:optimizeQuality;shape-rendering:geometricPrecision;text-rendering:geometricPrecision;stop-opacity:1"
   inkscape:connector-curvature="0"
   id="path3848-6"
   d="m 0.17545193,0.90406159 c -0.004596,0.0166178 -0.007051,0.0341211 -0.007051,0.0521997 0,0.10793201 0.0875293,0.19546121 0.19546193,0.19546121 0.10793198,0 0.19546123,-0.087529 0.19546123,-0.19546121 0,-0.0180785 -0.002456,-0.0355817 -0.007052,-0.0521997 h -0.032371 c 0.005486,0.0164019 0.008458,0.0339534 0.008458,0.0521997 0,0.0908342 -0.0736629,0.16449641 -0.16449639,0.16449641 -0.0908351,0 -0.16449801,-0.073662 -0.16449801,-0.16449641 0,-0.0182463 0.002972,-0.0357976 0.008458,-0.0521997 z"
   class="fil2" />


<g
   style="clip-rule:evenodd;opacity:1;fill-rule:evenodd;image-rendering:optimizeQuality;shape-rendering:geometricPrecision;text-rendering:geometricPrecision;stop-opacity:1"
   transform="matrix(0.23043777,0,0,0.23043777,-0.30263501,0.63839356)"
   id="Layer_x0020_2-2">
  <metadata
   id="CorelCorpID_1Corel-Layer-49" />

  <path
   inkscape:connector-curvature="0"
   style="fill:#00779c;fill-opacity:1"
   id="path17-29"
   d="M 3.52062,3.6932 4.03097,3.549535 2.89764,3.252909 1.75871,3.555129 2.046962,3.625003 C 1.88895,3.755078 1.752521,3.917523 1.669163,4.159574 L 1.574718,4.279204 1.725403,4.288294 1.716733,4.165168 C 1.80719,3.939755 1.942768,3.762148 2.100383,3.637948 L 2.275785,3.680464 C 2.219265,3.740267 2.171348,3.808283 2.134013,3.882531 h 0.154193 c 0.126437,-0.200323 0.34976,-0.333417 0.604102,-0.333417 0.254346,0 0.477665,0.133094 0.604102,0.333417 H 3.650603 C 3.615894,3.8135 3.572036,3.749858 3.520623,3.693196 Z"
   class="fil1" />

</g>

<path
   sodipodi:nodetypes="cscssccsssccssscscscsccsscscscccsscsccc"
   class="fil2"
   d="m 0.2862054,1.6398577 c -0.005925,0.00453 -0.0133299,0.00722 -0.0213627,0.00722 -0.008034,0 -0.0154384,-0.00269 -0.0213627,-0.00722 H 0.23883 c -0.007632,0 -0.0138744,0.00624 -0.0138744,0.013873 v 0.040619 c 0.0165399,0.031145 0.0432506,0.056067 0.0756979,0.070339 0.002514,-0.00251 0.004074,-0.00598 0.004074,-0.0098 V 1.6537303 c 0,-0.00763 -0.006243,-0.013873 -0.0138726,-0.013873 z m 0.008312,-0.027973 c 0,-0.016387 -0.0132882,-0.029675 -0.0296749,-0.029675 -0.0163855,0 -0.0296758,0.013287 -0.0296758,0.029675 0,0.012905 0.008241,0.023887 0.019746,0.027973 0.003104,0.0011 0.006446,0.0017 0.00993,0.0017 0.003483,0 0.006824,-5.992e-4 0.00993,-0.0017 0.0115055,-0.00409 0.0197451,-0.015068 0.0197447,-0.027973 z m 0.13202171,0.041845 v 0.1011612 c 0,0.00327 0.001145,0.00628 0.003055,0.00866 0.0337147,-0.015548 0.0609925,-0.042687 0.0767185,-0.076303 v -0.033519 c 0,-0.00763 -0.006244,-0.013873 -0.0138726,-0.013873 h -0.004651 c -0.005925,0.00453 -0.0133308,0.00722 -0.0213627,0.00722 -0.008034,0 -0.0154393,-0.00269 -0.0213627,-0.00722 h -0.004651 c -0.007629,0 -0.0138726,0.00624 -0.0138726,0.013873 z m 0.0695632,-0.041845 c 0,-0.016387 -0.01329,-0.029675 -0.0296765,-0.029675 -0.0163864,0 -0.0296765,0.013287 -0.0296765,0.029675 0,0.012905 0.008241,0.023887 0.0197469,0.027973 0.003104,0.0011 0.006448,0.0017 0.00993,0.0017 0.003482,0 0.006824,-5.992e-4 0.00993,-0.0017 0.0115046,-0.00409 0.0197469,-0.015068 0.0197461,-0.027973 z"
   id="path21-1"
   inkscape:connector-curvature="0"
   style="clip-rule:evenodd;opacity:1;fill:#ff6700;fill-rule:evenodd;stroke-width:0.230438;image-rendering:optimizeQuality;shape-rendering:geometricPrecision;text-rendering:geometricPrecision;stop-opacity:1" />

<g
   style="clip-rule:evenodd;opacity:1;fill-rule:evenodd;image-rendering:optimizeQuality;shape-rendering:geometricPrecision;text-rendering:geometricPrecision;stop-opacity:1"
   transform="matrix(0.23043777,0,0,0.23043777,-0.30263501,0.63839356)"
   id="Layer_x0020_5-0">
  <metadata
   id="CorelCorpID_4Corel-Layer-9" />

  <path
   inkscape:connector-curvature="0"
   style="fill:#00779c;fill-opacity:1"
   id="path31-3"
   d="m 3.07154,4.13859 c 0,-0.094264 -0.076441,-0.170701 -0.170701,-0.170701 -0.094256,0 -0.170697,0.076437 -0.170697,0.170701 0,0.074221 0.047405,0.137402 0.113583,0.160902 0.017858,0.00634 0.037087,0.0098 0.057114,0.0098 0.020035,0 0.039264,-0.00346 0.057122,-0.0098 C 3.024138,4.275992 3.07154,4.212811 3.07154,4.13859 Z M 2.67141,4.379291 v 0.529181 c 0.069279,0.023709 0.143591,0.036583 0.220894,0.036583 0.083697,0 0.163878,-0.015087 0.237972,-0.042685 V 4.379291 c 0,-0.043886 -0.035913,-0.079799 -0.079803,-0.079799 H 3.023725 C 2.989646,4.325559 2.947048,4.341051 2.900839,4.341051 2.854634,4.341051 2.812036,4.325559 2.777961,4.299492 H 2.751209 c -0.043886,0 -0.079799,0.035913 -0.079799,0.079799 z"
   class="fil1" />

</g>

<g
   style="clip-rule:evenodd;opacity:1;fill-rule:evenodd;image-rendering:optimizeQuality;shape-rendering:geometricPrecision;text-rendering:geometricPrecision;stop-opacity:1"
   transform="matrix(0.23043777,0,0,0.23043777,-0.30263501,0.63839356)"
   id="Layer_x0020_6-00">
  <metadata
   id="CorelCorpID_5Corel-Layer-3" />

  <path
   inkscape:connector-curvature="0"
   style="fill:#ff6700;fill-opacity:1"
   id="path35-01"
   d="M 4.34694,4.70042 V 3.766207 c 0,-0.030283 0.010614,-0.056173 0.031842,-0.077394 C 4.40001,3.667585 4.425892,3.65697 4.456176,3.65697 h 0.397346 c 0.113118,0 0.196984,0.024335 0.251602,0.07274 0.056701,0.050732 0.084913,0.124508 0.084913,0.221579 0,0.064713 -0.014244,0.118295 -0.042457,0.160752 C 5.123245,4.152415 5.084942,4.181675 5.032391,4.200049 5.078982,4.2161 5.111344,4.240435 5.129458,4.272789 5.14758,4.303073 5.158706,4.354588 5.162856,4.427588 l 0.00595,0.124244 c 0,0.012169 0,0.02537 0,0.03935 0,0.014232 0.00104,0.027441 0.00311,0.039602 0.00621,0.036244 0.018122,0.059543 0.036496,0.069634 H 4.971818 C 4.961464,4.680225 4.955515,4.658997 4.953444,4.636745 4.949564,4.604379 4.947494,4.582123 4.947494,4.569954 L 4.944384,4.457871 C 4.940244,4.39704 4.928341,4.353552 4.907888,4.327406 4.885884,4.305142 4.846282,4.294016 4.789857,4.294016 H 4.562318 V 4.700418 Z M 6.14779,4.433538 H 6.354101 C 6.355911,4.473924 6.371188,4.504463 6.399404,4.524656 6.429947,4.544849 6.470325,4.55494 6.520802,4.55494 6.557306,4.55494 6.588629,4.54795 6.61477,4.533719 6.639105,4.519479 6.651266,4.500321 6.651266,4.475995 6.651266,4.439751 6.608821,4.412314 6.523908,4.394192 6.487412,4.387982 6.460235,4.382027 6.441849,4.375814 6.334684,4.349672 6.262987,4.318353 6.226483,4.281849 6.186105,4.245349 6.165912,4.196943 6.165912,4.136113 c 0,-0.076882 0.029252,-0.140555 0.088012,-0.191031 0.060827,-0.046598 0.13952,-0.069898 0.236594,-0.069898 0.105354,0 0.189224,0.023299 0.251862,0.069634 0.05876,0.05074 0.090091,0.116484 0.093968,0.197248 H 6.705884 c -0.038303,0 -0.067563,-0.017079 -0.087748,-0.051512 v 0 C 6.609856,4.082534 6.601825,4.074511 6.593801,4.066227 6.56947,4.048105 6.53608,4.039038 6.493624,4.039038 c -0.040378,0 -0.070669,0.00596 -0.091114,0.018122 -0.018122,0.012173 -0.027181,0.030547 -0.027181,0.054618 0,0.032358 0.052547,0.059795 0.157646,0.082059 0.012161,0.00388 0.022776,0.00699 0.031831,0.00906 0.00907,0.00207 0.01761,0.00311 0.025894,0.00311 0.103024,0.02615 0.17472,0.056697 0.215106,0.090862 0.038567,0.036496 0.057724,0.085161 0.057724,0.145732 0,0.089051 -0.032358,0.157906 -0.097067,0.206311 C 6.705884,4.69344 6.61477,4.715691 6.493624,4.715691 6.378175,4.715691 6.292234,4.692404 6.235801,4.645805 6.177041,4.59947 6.147789,4.531651 6.147789,4.4426 Z M 5.872967,4.45166 H 6.02466 C 6.002396,4.536565 5.95994,4.601274 5.897302,4.645802 5.834652,4.6924 5.755711,4.715688 5.660708,4.715688 5.545519,4.715688 5.455432,4.678156 5.39072,4.603345 5.326003,4.530613 5.293645,4.426554 5.293645,4.290912 c 0,-0.129429 0.031323,-0.230646 0.093968,-0.303386 0.064713,-0.074803 0.154799,-0.112343 0.269988,-0.112343 0.121398,0 0.215366,0.036504 0.28215,0.109236 0.064716,0.074811 0.097071,0.178874 0.097071,0.312445 0,0.00802 0,0.015276 0,0.021228 0,0.00621 0,0.010091 0,0.012161 0,0.010098 -0.00104,0.017087 -0.00311,0.021228 H 5.509011 c 0.00207,0.062638 0.017087,0.109236 0.045559,0.13952 0.026146,0.032354 0.065748,0.048669 0.118295,0.048669 0.034433,0 0.063685,-0.00699 0.088016,-0.021228 0.00595,-0.00207 0.01165,-0.00569 0.016567,-0.010614 C 5.782628,4.502648 5.788062,4.497214 5.794275,4.491001 5.796085,4.485051 5.803855,4.477029 5.816791,4.46693 5.829996,4.456835 5.848893,4.451658 5.872964,4.451658 Z M 5.509014,4.215066 H 5.818349 C 5.814469,4.160448 5.800227,4.120062 5.775892,4.093657 5.74975,4.065444 5.712219,4.051212 5.663813,4.051212 c -0.044528,0 -0.081024,0.014232 -0.10924,0.042445 C 5.526101,4.122133 5.511085,4.162519 5.509014,4.215066 Z M 4.562309,4.112042 h 0.25161 c 0.054618,0 0.094996,-0.01113 0.121402,-0.03339 C 4.961463,4.056388 4.974667,4.021963 4.974667,3.975365 4.974667,3.92903 4.961462,3.894601 4.935321,3.872341 4.910986,3.848006 4.87449,3.835845 4.826081,3.835845 H 4.562309 Z"
   class="fil3" />

</g>

<g
   style="clip-rule:evenodd;opacity:1;fill-rule:evenodd;image-rendering:optimizeQuality;shape-rendering:geometricPrecision;text-rendering:geometricPrecision;stop-opacity:1"
   transform="matrix(0.23043777,0,0,0.23043777,-0.30263501,0.63839356)"
   id="Layer_x0020_7-9">
  <metadata
   id="CorelCorpID_6Corel-Layer-8" />

  <path
   inkscape:connector-curvature="0"
   style="fill:#00779c;fill-opacity:1"
   id="path39-6"
   d="M 6.98393,4.70042 V 3.766207 c 0,-0.030283 0.010614,-0.056173 0.031842,-0.077394 C 7.037,3.667585 7.062882,3.65697 7.093166,3.65697 h 0.382327 c 0.107169,0 0.188965,0.022264 0.245654,0.066784 0.056689,0.048405 0.084913,0.114157 0.084913,0.197252 0,0.052547 -0.011138,0.097067 -0.033402,0.133311 C 7.750406,4.088742 7.719075,4.116183 7.678701,4.136376 7.731248,4.158636 7.771622,4.189959 7.799847,4.230333 7.825989,4.268648 7.83919,4.319388 7.83919,4.382026 7.83919,4.482983 7.806832,4.561935 7.742115,4.618624 7.675331,4.673242 7.581363,4.700419 7.459965,4.700419 H 6.983931 Z m 1.74064,0 V 4.539672 L 9.158409,4.06053 H 8.851929 C 8.823716,4.06053 8.799382,4.05095 8.779189,4.031794 8.758996,4.012385 8.748906,3.988562 8.748906,3.960349 V 3.893565 H 9.410024 V 4.066478 L 8.982394,4.524403 H 9.425292 V 4.700419 H 8.724572 Z M 8.436129,4.294018 C 8.407916,4.30825 8.368314,4.321195 8.317838,4.333361 8.27124,4.343459 8.248204,4.348637 8.248204,4.348637 8.211704,4.358728 8.185302,4.371936 8.169251,4.38798 8.155015,4.410244 8.14803,4.432504 8.14803,4.454767 c 0,0.030287 0.00906,0.054618 0.027177,0.07274 0.018374,0.016307 0.04452,0.024327 0.078953,0.024327 0.056689,0 0.101209,-0.016303 0.133563,-0.048658 C 8.420085,4.47081 8.436128,4.426554 8.436128,4.369865 Z M 8.484538,4.66703 C 8.442089,4.689294 8.39705,4.703014 8.34968,4.708188 c -0.047634,0.00492 -0.089567,0.0075 -0.126063,0.0075 -0.07274,0 -0.136425,-0.019669 -0.191043,-0.059272 C 7.977956,4.617066 7.950775,4.551833 7.950775,4.460719 c 0,-0.084906 0.024858,-0.145472 0.074299,-0.181976 0.049433,-0.036236 0.112854,-0.060571 0.189476,-0.07274 0.010102,0 0.022264,-0.00155 0.036496,-0.00466 C 8.26529,4.198503 8.281341,4.195903 8.299452,4.193833 8.388507,4.181672 8.433023,4.15553 8.433023,4.11488 8.433023,4.084597 8.417236,4.064927 8.385913,4.05586 8.354594,4.0468 8.325858,4.04214 8.299452,4.04214 8.271239,4.04214 8.245869,4.04628 8.223617,4.054313 8.201353,4.062333 8.185302,4.077348 8.175208,4.099612 H 7.972003 C 7.980023,4.036962 8.008247,3.985451 8.056908,3.944813 8.111526,3.898478 8.189443,3.875179 8.290396,3.875179 c 0.113378,0 0.19828,0.019157 0.254717,0.057724 0.05876,0.040386 0.088012,0.097075 0.088012,0.169815 v 0.276197 c 0,0.080764 -0.014756,0.144185 -0.044008,0.189488 C 8.559869,4.613954 8.52492,4.646832 8.4845378,4.667025 Z m -1.2943,-0.6065 h 0.24565 c 0.052551,0 0.091118,-0.00906 0.115189,-0.027441 C 7.575412,4.014967 7.587581,3.986754 7.587581,3.948187 7.587581,3.909872 7.575412,3.881396 7.551077,3.863281 7.530884,3.84697 7.491546,3.838946 7.432786,3.838946 H 7.190239 v 0.221583 z m 0,0.451701 h 0.254709 c 0.056689,0 0.100181,-0.011126 0.130465,-0.03339 C 7.603625,4.458648 7.617869,4.424223 7.617869,4.375813 7.617869,4.327408 7.603625,4.291947 7.575412,4.269683 7.549006,4.24949 7.504743,4.239399 7.441841,4.239399 H 7.190239 V 4.51223 Z"
   class="fil4" />

</g>

<g
   style="clip-rule:evenodd;opacity:1;fill-rule:evenodd;image-rendering:optimizeQuality;shape-rendering:geometricPrecision;text-rendering:geometricPrecision;stop-opacity:1;fill:none;fill-opacity:1"
   transform="matrix(0.23043777,0,0,0.23043777,-0.30263501,0.63839356)"
   id="Layer_x0020_8-9">
  <metadata
   id="CorelCorpID_7Corel-Layer-0" />

  <path
   inkscape:connector-curvature="0"
   id="path43-1"
   d="m 9.37175,4.9475 c 0,0.01311 -0.00474,0.023547 -0.014213,0.031315 -0.00947,0.00778 -0.02222,0.011661 -0.038244,0.011661 H 9.253722 V 4.904881 h 0.065213 c 0.016744,0 0.02974,0.00358 0.038965,0.010744 0.00923,0.00716 0.01385,0.017784 0.01385,0.031875 z M 6.99744,5.011606 V 5.119059 H 7.042243 V 4.8640833 H 6.99744 v 0.105992 H 6.875783 V 4.8640833 H 6.83098 v 0.254976 H 6.875783 V 5.0116063 Z M 6.686905,5.078263 6.658133,5.049117 C 6.647204,5.059318 6.636161,5.067396 6.624987,5.073345 c -0.011165,0.00595 -0.02452,0.00892 -0.040063,0.00892 -0.012146,0 -0.023378,-0.00237 -0.033693,-0.0071 C 6.540912,5.070435 6.531983,5.063937 6.524455,5.055673 6.516925,5.047423 6.511097,5.037771 6.506971,5.026716 6.502841,5.015669 6.500771,5.003834 6.500771,4.991204 c 0,-0.012622 0.00207,-0.024402 0.0062,-0.035327 0.00413,-0.010933 0.00995,-0.020468 0.017484,-0.028594 0.00753,-0.00813 0.016457,-0.014575 0.026776,-0.019307 0.010315,-0.00474 0.021547,-0.0071 0.033693,-0.0071 0.014571,0 0.027559,0.00292 0.038976,0.00874 0.011406,0.00582 0.02222,0.013476 0.032413,0.022945 L 6.685092,4.899411 C 6.679012,4.893581 6.672588,4.888242 6.665781,4.883383 6.658981,4.878533 6.651584,4.874343 6.643561,4.870816 6.635551,4.867296 6.626754,4.864576 6.617155,4.862626 6.607565,4.860686 6.596946,4.859706 6.585285,4.859706 c -0.019429,0 -0.037154,0.00347 -0.053177,0.010382 C 6.516076,4.876998 6.502242,4.886482 6.49058,4.898501 6.478927,4.910525 6.469879,4.924544 6.463446,4.940576 c -0.00644,0.016028 -0.00965,0.03315 -0.00965,0.05135 0,0.018461 0.00327,0.035705 0.00983,0.051728 0.00656,0.016028 0.015595,0.029929 0.027142,0.041701 0.011535,0.01178 0.025189,0.021075 0.040972,0.027874 0.015784,0.0068 0.033028,0.010197 0.051724,0.010197 0.011906,0 0.02276,-0.00103 0.032598,-0.0031 0.00983,-0.00206 0.018882,-0.0051 0.027134,-0.0091 C 6.651456,5.107216 6.659164,5.102486 6.66633,5.097013 6.67349,5.091553 6.68035,5.085296 6.686901,5.078257 Z M 6.26748,4.9474998 c 0,0.01311 -0.00474,0.023547 -0.014213,0.031315 -0.00947,0.00778 -0.022217,0.011661 -0.038244,0.011661 H 6.149456 v -0.085595 h 0.065209 c 0.016744,0 0.029744,0.00358 0.038965,0.010744 0.00924,0.00716 0.01385,0.017784 0.01385,0.031875 z M 6.321015,5.1190588 6.25218,5.0225268 c 0.00898,-0.00242 0.017173,-0.00589 0.024575,-0.010374 0.00742,-0.0045 0.013791,-0.00996 0.01913,-0.016398 0.00534,-0.00643 0.00954,-0.013839 0.012571,-0.022213 0.00303,-0.00838 0.00456,-0.017913 0.00456,-0.028598 0,-0.012382 -0.00219,-0.023614 -0.00656,-0.033685 -0.00437,-0.010083 -0.01063,-0.018579 -0.01876,-0.025508 -0.00813,-0.00692 -0.018087,-0.012264 -0.02987,-0.016024 -0.01178,-0.00377 -0.024945,-0.00565 -0.039516,-0.00565 H 6.104664 v 0.254976 h 0.044795 v -0.088882 h 0.056102 l 0.062642,0.088882 z M 5.874259,5.0177948 H 5.78648 L 5.830197,4.9158108 Z M 5.85168,4.8622638 H 5.810156 l -0.112185,0.256795 h 0.045894 l 0.02622,-0.061555 H 5.89066 l 0.025854,0.061555 h 0.04735 z m -0.283945,0.00182 H 5.3787 v 0.254976 H 5.569566 V 5.0789888 H 5.423495 V 5.0105168 H 5.551349 V 4.9704458 H 5.423495 v -0.066287 h 0.14424 z m -0.481354,0.066654 c 0,-0.0085 0.00365,-0.015716 0.010929,-0.021669 0.00728,-0.00595 0.017484,-0.00893 0.030598,-0.00893 0.01165,0 0.023193,0.00225 0.034602,0.00674 0.011409,0.00449 0.022945,0.010992 0.034598,0.019488 L 5.221151,4.8924928 C 5.208037,4.8820518 5.194017,4.8740948 5.179084,4.8686388 c -0.014937,-0.00546 -0.031752,-0.0082 -0.050449,-0.0082 -0.01263,0 -0.024287,0.00176 -0.034969,0.00528 -0.010685,0.00352 -0.019854,0.00856 -0.0275,0.015118 -0.00765,0.00655 -0.013661,0.014378 -0.018028,0.023488 -0.00438,0.0091 -0.00656,0.019244 -0.00656,0.030421 0,0.011894 0.00189,0.021972 0.00565,0.030228 0.00377,0.00826 0.00922,0.015307 0.01639,0.021134 0.00717,0.00582 0.016024,0.010681 0.026591,0.014563 0.010559,0.00389 0.022646,0.0074 0.03624,0.010563 0.011894,0.00292 0.021555,0.00571 0.028961,0.00838 0.0074,0.00267 0.013232,0.00552 0.017488,0.00856 0.00425,0.00303 0.00716,0.00637 0.00874,0.01002 0.00157,0.00364 0.00236,0.00776 0.00236,0.012374 0,0.00996 -0.00406,0.01785 -0.012201,0.023677 -0.00813,0.00583 -0.019114,0.00874 -0.032961,0.00874 -0.016024,0 -0.030354,-0.00285 -0.04298,-0.00855 -0.012626,-0.00571 -0.025134,-0.013905 -0.03752,-0.024594 l -0.026957,0.032063 c 0.015303,0.013835 0.031937,0.024102 0.049902,0.030772 0.017972,0.00668 0.036791,0.010012 0.056465,0.010012 0.013358,0 0.025618,-0.00169 0.036784,-0.00509 0.011173,-0.0034 0.020772,-0.00837 0.028776,-0.014937 0.00802,-0.00655 0.014272,-0.014571 0.018764,-0.024039 0.00449,-0.00947 0.00674,-0.020276 0.00674,-0.032421 0,-0.010681 -0.00176,-0.019965 -0.00529,-0.027858 C 5.22,5.0104528 5.21484,5.0035278 5.20804,4.9975828 5.20124,4.9916228 5.192678,4.9865868 5.182367,4.9824568 5.172044,4.9783368 5.16021,4.9745668 5.146855,4.9711728 5.134702,4.9682528 5.12469,4.9654528 5.116804,4.9627928 c -0.00789,-0.00268 -0.014083,-0.00559 -0.018583,-0.00875 -0.0045,-0.00315 -0.00759,-0.00655 -0.00928,-0.010193 -0.0017,-0.00365 -0.00256,-0.00802 -0.00256,-0.013122 z M 4.896416,4.8640838 H 4.707377 v 0.254976 H 4.898239 V 5.0789888 H 4.752168 V 5.0105168 H 4.880026 V 4.9704458 H 4.752168 V 4.9041588 H 4.896416 Z M 4.5097667,4.9475 c 0,0.01311 -0.00474,0.023547 -0.014209,0.031315 -0.00947,0.00778 -0.02222,0.011661 -0.038248,0.011661 H 4.3917427 V 4.904881 h 0.065209 c 0.016752,0 0.029748,0.00358 0.038965,0.010744 0.00924,0.00716 0.01385,0.017784 0.01385,0.031875 z m 0.053535,0.171559 -0.068835,-0.096532 c 0.00898,-0.00242 0.017177,-0.00589 0.024583,-0.010374 0.00741,-0.0045 0.013784,-0.00996 0.019122,-0.016398 0.00535,-0.00643 0.00954,-0.013839 0.012571,-0.022213 0.00304,-0.00838 0.00456,-0.017913 0.00456,-0.028598 0,-0.012382 -0.00219,-0.023614 -0.00656,-0.033685 -0.00437,-0.010083 -0.01063,-0.018579 -0.01876,-0.025508 -0.00813,-0.00692 -0.018087,-0.012264 -0.02987,-0.016024 -0.01178,-0.00377 -0.024941,-0.00565 -0.039516,-0.00565 h -0.113646 v 0.254976 h 0.044795 V 5.030171 h 0.056102 l 0.062646,0.088882 z m 4.86198,0 -0.068835,-0.096532 c 0.00898,-0.00242 0.017169,-0.00589 0.024575,-0.010374 0.00741,-0.0045 0.013784,-0.00996 0.01913,-0.016398 0.00534,-0.00643 0.00954,-0.013839 0.012567,-0.022213 0.00303,-0.00838 0.00456,-0.017913 0.00456,-0.028598 0,-0.012382 -0.00219,-0.023614 -0.00656,-0.033685 -0.00438,-0.010083 -0.01063,-0.018579 -0.01876,-0.025508 -0.00814,-0.00692 -0.018098,-0.012264 -0.029878,-0.016024 -0.011772,-0.00377 -0.024937,-0.00565 -0.039516,-0.00565 h -0.113638 v 0.254976 h 0.044791 V 5.030171 h 0.056102 l 0.062646,0.088882 z M 8.9785261,5.017795 H 8.8907387 L 8.9344631,4.915811 Z M 8.9559474,4.862264 h -0.041531 l -0.112177,0.256795 h 0.045894 l 0.026217,-0.061555 h 0.120575 l 0.025858,0.061555 h 0.04735 z m -0.35715,0.155531 H 8.5110061 L 8.5547266,4.915811 Z M 8.5762108,4.862264 h -0.041524 l -0.112185,0.256795 h 0.045894 l 0.026224,-0.061555 h 0.120571 l 0.025862,0.061555 h 0.04735 z M 8.2329038,4.903792 8.0824668,5.085914 V 5.11906 h 0.208717 V 5.079351 H 8.1407428 L 8.2911838,4.897233 V 4.864083 H 8.0871958 V 4.903792 Z M 7.8611798,5.017796 H 7.7733928 L 7.8171058,4.915812 Z M 7.8385928,4.862265 H 7.7970688 L 7.6848838,5.11906 h 0.045902 l 0.026217,-0.061555 h 0.120575 l 0.025854,0.061555 h 0.04735 z M 7.4650498,5.079352 H 7.3907468 V 5.009419 h 0.071028 c 0.017724,0 0.030905,0.00304 0.039524,0.00911 0.00862,0.00607 0.012925,0.014575 0.012925,0.025496 0,0.011654 -0.00437,0.020461 -0.01311,0.026413 -0.00874,0.00594 -0.020764,0.00892 -0.036063,0.00892 z M 7.45194,4.9715406 H 7.390747 v -0.067748 h 0.064472 c 0.014571,0 0.025673,0.00285 0.033327,0.00856 0.00765,0.0057 0.01148,0.013776 0.01148,0.024213 0,0.011906 -0.00438,0.020705 -0.013118,0.026413 -0.00874,0.00571 -0.020398,0.00856 -0.034969,0.00856 z M 7.46105,4.8640836 H 7.34668 v 0.254976 h 0.118012 c 0.014087,0 0.026953,-0.00151 0.038614,-0.00456 0.011658,-0.00304 0.021614,-0.00753 0.02987,-0.013476 0.00826,-0.00594 0.014626,-0.013287 0.01911,-0.022035 0.0045,-0.00874 0.00674,-0.018823 0.00674,-0.030228 0,-0.00874 -0.00121,-0.016449 -0.00363,-0.02313 -0.00243,-0.00668 -0.00589,-0.012449 -0.010386,-0.017295 -0.0045,-0.00486 -0.00983,-0.00906 -0.016024,-0.012579 -0.0062,-0.00352 -0.013059,-0.00661 -0.020579,-0.00928 0.0046,-0.00243 0.00916,-0.00534 0.013657,-0.00874 0.00449,-0.0034 0.00837,-0.00734 0.011653,-0.011847 0.00327,-0.00448 0.00594,-0.00977 0.00801,-0.015842 0.00207,-0.00607 0.00309,-0.012992 0.00309,-0.02076 0,-0.020154 -0.00752,-0.036063 -0.022575,-0.047716 C 7.507179,4.8699136 7.486789,4.8640876 7.461045,4.8640876 Z"
   class="fil5"
   style="fill:none;fill-opacity:1" />

</g>

<path
   sodipodi:nodetypes="csssccsssccc"
   style="clip-rule:evenodd;opacity:1;fill:#00779c;fill-opacity:1;fill-rule:evenodd;stroke-width:0.230438;image-rendering:optimizeQuality;shape-rendering:geometricPrecision;text-rendering:geometricPrecision;stop-opacity:1"
   inkscape:connector-curvature="0"
   id="path3848-64"
   d="m 0.17545193,1.5707282 c -0.004596,0.016618 -0.007051,0.034121 -0.007051,0.0522 0,0.107932 0.0875293,0.1954613 0.19546193,0.1954613 0.10793198,0 0.19546123,-0.087529 0.19546123,-0.1954613 0,-0.018079 -0.002456,-0.035582 -0.007052,-0.0522 h -0.032371 c 0.005486,0.016402 0.008458,0.033953 0.008458,0.0522 0,0.090834 -0.0736629,0.1644964 -0.16449639,0.1644964 -0.0908351,0 -0.16449801,-0.073662 -0.16449801,-0.1644964 0,-0.018246 0.002972,-0.035798 0.008458,-0.0522 z"
   class="fil2" />

<g
   style="clip-rule:evenodd;opacity:1;fill-rule:evenodd;image-rendering:optimizeQuality;shape-rendering:geometricPrecision;text-rendering:geometricPrecision;stop-opacity:1;fill:#ffffff;fill-opacity:1"
   transform="matrix(0.23043777,0,0,0.23043777,-0.30263501,0.63839356)"
   id="Layer_x0020_8-7">
  <metadata
     id="CorelCorpID_7Corel-Layer-6" />
  <path
     style="fill:#ffffff;fill-opacity:1"
     inkscape:connector-curvature="0"
     id="path43-2"
     d="m 9.37175,4.9475 c 0,0.01311 -0.00474,0.023547 -0.014213,0.031315 -0.00947,0.00778 -0.02222,0.011661 -0.038244,0.011661 H 9.253722 V 4.904881 h 0.065213 c 0.016744,0 0.02974,0.00358 0.038965,0.010744 0.00923,0.00716 0.01385,0.017784 0.01385,0.031875 z M 6.99744,5.011606 V 5.119059 H 7.042243 V 4.8640833 H 6.99744 v 0.105992 H 6.875783 V 4.8640833 H 6.83098 v 0.254976 H 6.875783 V 5.0116063 Z M 6.686905,5.078263 6.658133,5.049117 C 6.647204,5.059318 6.636161,5.067396 6.624987,5.073345 c -0.011165,0.00595 -0.02452,0.00892 -0.040063,0.00892 -0.012146,0 -0.023378,-0.00237 -0.033693,-0.0071 C 6.540912,5.070435 6.531983,5.063937 6.524455,5.055673 6.516925,5.047423 6.511097,5.037771 6.506971,5.026716 6.502841,5.015669 6.500771,5.003834 6.500771,4.991204 c 0,-0.012622 0.00207,-0.024402 0.0062,-0.035327 0.00413,-0.010933 0.00995,-0.020468 0.017484,-0.028594 0.00753,-0.00813 0.016457,-0.014575 0.026776,-0.019307 0.010315,-0.00474 0.021547,-0.0071 0.033693,-0.0071 0.014571,0 0.027559,0.00292 0.038976,0.00874 0.011406,0.00582 0.02222,0.013476 0.032413,0.022945 L 6.685092,4.899411 C 6.679012,4.893581 6.672588,4.888242 6.665781,4.883383 6.658981,4.878533 6.651584,4.874343 6.643561,4.870816 6.635551,4.867296 6.626754,4.864576 6.617155,4.862626 6.607565,4.860686 6.596946,4.859706 6.585285,4.859706 c -0.019429,0 -0.037154,0.00347 -0.053177,0.010382 C 6.516076,4.876998 6.502242,4.886482 6.49058,4.898501 6.478927,4.910525 6.469879,4.924544 6.463446,4.940576 c -0.00644,0.016028 -0.00965,0.03315 -0.00965,0.05135 0,0.018461 0.00327,0.035705 0.00983,0.051728 0.00656,0.016028 0.015595,0.029929 0.027142,0.041701 0.011535,0.01178 0.025189,0.021075 0.040972,0.027874 0.015784,0.0068 0.033028,0.010197 0.051724,0.010197 0.011906,0 0.02276,-0.00103 0.032598,-0.0031 0.00983,-0.00206 0.018882,-0.0051 0.027134,-0.0091 C 6.651456,5.107216 6.659164,5.102486 6.66633,5.097013 6.67349,5.091553 6.68035,5.085296 6.686901,5.078257 Z M 6.26748,4.9474998 c 0,0.01311 -0.00474,0.023547 -0.014213,0.031315 -0.00947,0.00778 -0.022217,0.011661 -0.038244,0.011661 H 6.149456 v -0.085595 h 0.065209 c 0.016744,0 0.029744,0.00358 0.038965,0.010744 0.00924,0.00716 0.01385,0.017784 0.01385,0.031875 z M 6.321015,5.1190588 6.25218,5.0225268 c 0.00898,-0.00242 0.017173,-0.00589 0.024575,-0.010374 0.00742,-0.0045 0.013791,-0.00996 0.01913,-0.016398 0.00534,-0.00643 0.00954,-0.013839 0.012571,-0.022213 0.00303,-0.00838 0.00456,-0.017913 0.00456,-0.028598 0,-0.012382 -0.00219,-0.023614 -0.00656,-0.033685 -0.00437,-0.010083 -0.01063,-0.018579 -0.01876,-0.025508 -0.00813,-0.00692 -0.018087,-0.012264 -0.02987,-0.016024 -0.01178,-0.00377 -0.024945,-0.00565 -0.039516,-0.00565 H 6.104664 v 0.254976 h 0.044795 v -0.088882 h 0.056102 l 0.062642,0.088882 z M 5.874259,5.0177948 H 5.78648 L 5.830197,4.9158108 Z M 5.85168,4.8622638 H 5.810156 l -0.112185,0.256795 h 0.045894 l 0.02622,-0.061555 H 5.89066 l 0.025854,0.061555 h 0.04735 z m -0.283945,0.00182 H 5.3787 v 0.254976 H 5.569566 V 5.0789888 H 5.423495 V 5.0105168 H 5.551349 V 4.9704458 H 5.423495 v -0.066287 h 0.14424 z m -0.481354,0.066654 c 0,-0.0085 0.00365,-0.015716 0.010929,-0.021669 0.00728,-0.00595 0.017484,-0.00893 0.030598,-0.00893 0.01165,0 0.023193,0.00225 0.034602,0.00674 0.011409,0.00449 0.022945,0.010992 0.034598,0.019488 L 5.221151,4.8924928 C 5.208037,4.8820518 5.194017,4.8740948 5.179084,4.8686388 c -0.014937,-0.00546 -0.031752,-0.0082 -0.050449,-0.0082 -0.01263,0 -0.024287,0.00176 -0.034969,0.00528 -0.010685,0.00352 -0.019854,0.00856 -0.0275,0.015118 -0.00765,0.00655 -0.013661,0.014378 -0.018028,0.023488 -0.00438,0.0091 -0.00656,0.019244 -0.00656,0.030421 0,0.011894 0.00189,0.021972 0.00565,0.030228 0.00377,0.00826 0.00922,0.015307 0.01639,0.021134 0.00717,0.00582 0.016024,0.010681 0.026591,0.014563 0.010559,0.00389 0.022646,0.0074 0.03624,0.010563 0.011894,0.00292 0.021555,0.00571 0.028961,0.00838 0.0074,0.00267 0.013232,0.00552 0.017488,0.00856 0.00425,0.00303 0.00716,0.00637 0.00874,0.01002 0.00157,0.00364 0.00236,0.00776 0.00236,0.012374 0,0.00996 -0.00406,0.01785 -0.012201,0.023677 -0.00813,0.00583 -0.019114,0.00874 -0.032961,0.00874 -0.016024,0 -0.030354,-0.00285 -0.04298,-0.00855 -0.012626,-0.00571 -0.025134,-0.013905 -0.03752,-0.024594 l -0.026957,0.032063 c 0.015303,0.013835 0.031937,0.024102 0.049902,0.030772 0.017972,0.00668 0.036791,0.010012 0.056465,0.010012 0.013358,0 0.025618,-0.00169 0.036784,-0.00509 0.011173,-0.0034 0.020772,-0.00837 0.028776,-0.014937 0.00802,-0.00655 0.014272,-0.014571 0.018764,-0.024039 0.00449,-0.00947 0.00674,-0.020276 0.00674,-0.032421 0,-0.010681 -0.00176,-0.019965 -0.00529,-0.027858 C 5.22,5.0104528 5.21484,5.0035278 5.20804,4.9975828 5.20124,4.9916228 5.192678,4.9865868 5.182367,4.9824568 5.172044,4.9783368 5.16021,4.9745668 5.146855,4.9711728 5.134702,4.9682528 5.12469,4.9654528 5.116804,4.9627928 c -0.00789,-0.00268 -0.014083,-0.00559 -0.018583,-0.00875 -0.0045,-0.00315 -0.00759,-0.00655 -0.00928,-0.010193 -0.0017,-0.00365 -0.00256,-0.00802 -0.00256,-0.013122 z M 4.896416,4.8640838 H 4.707377 v 0.254976 H 4.898239 V 5.0789888 H 4.752168 V 5.0105168 H 4.880026 V 4.9704458 H 4.752168 V 4.9041588 H 4.896416 Z M 4.5097667,4.9475 c 0,0.01311 -0.00474,0.023547 -0.014209,0.031315 -0.00947,0.00778 -0.02222,0.011661 -0.038248,0.011661 H 4.3917427 V 4.904881 h 0.065209 c 0.016752,0 0.029748,0.00358 0.038965,0.010744 0.00924,0.00716 0.01385,0.017784 0.01385,0.031875 z m 0.053535,0.171559 -0.068835,-0.096532 c 0.00898,-0.00242 0.017177,-0.00589 0.024583,-0.010374 0.00741,-0.0045 0.013784,-0.00996 0.019122,-0.016398 0.00535,-0.00643 0.00954,-0.013839 0.012571,-0.022213 0.00304,-0.00838 0.00456,-0.017913 0.00456,-0.028598 0,-0.012382 -0.00219,-0.023614 -0.00656,-0.033685 -0.00437,-0.010083 -0.01063,-0.018579 -0.01876,-0.025508 -0.00813,-0.00692 -0.018087,-0.012264 -0.02987,-0.016024 -0.01178,-0.00377 -0.024941,-0.00565 -0.039516,-0.00565 h -0.113646 v 0.254976 h 0.044795 V 5.030171 h 0.056102 l 0.062646,0.088882 z m 4.86198,0 -0.068835,-0.096532 c 0.00898,-0.00242 0.017169,-0.00589 0.024575,-0.010374 0.00741,-0.0045 0.013784,-0.00996 0.01913,-0.016398 0.00534,-0.00643 0.00954,-0.013839 0.012567,-0.022213 0.00303,-0.00838 0.00456,-0.017913 0.00456,-0.028598 0,-0.012382 -0.00219,-0.023614 -0.00656,-0.033685 -0.00438,-0.010083 -0.01063,-0.018579 -0.01876,-0.025508 -0.00814,-0.00692 -0.018098,-0.012264 -0.029878,-0.016024 -0.011772,-0.00377 -0.024937,-0.00565 -0.039516,-0.00565 h -0.113638 v 0.254976 h 0.044791 V 5.030171 h 0.056102 l 0.062646,0.088882 z M 8.9785261,5.017795 H 8.8907387 L 8.9344631,4.915811 Z M 8.9559474,4.862264 h -0.041531 l -0.112177,0.256795 h 0.045894 l 0.026217,-0.061555 h 0.120575 l 0.025858,0.061555 h 0.04735 z m -0.35715,0.155531 H 8.5110061 L 8.5547266,4.915811 Z M 8.5762108,4.862264 h -0.041524 l -0.112185,0.256795 h 0.045894 l 0.026224,-0.061555 h 0.120571 l 0.025862,0.061555 h 0.04735 z M 8.2329038,4.903792 8.0824668,5.085914 V 5.11906 h 0.208717 V 5.079351 H 8.1407428 L 8.2911838,4.897233 V 4.864083 H 8.0871958 V 4.903792 Z M 7.8611798,5.017796 H 7.7733928 L 7.8171058,4.915812 Z M 7.8385928,4.862265 H 7.7970688 L 7.6848838,5.11906 h 0.045902 l 0.026217,-0.061555 h 0.120575 l 0.025854,0.061555 h 0.04735 z M 7.4650498,5.079352 H 7.3907468 V 5.009419 h 0.071028 c 0.017724,0 0.030905,0.00304 0.039524,0.00911 0.00862,0.00607 0.012925,0.014575 0.012925,0.025496 0,0.011654 -0.00437,0.020461 -0.01311,0.026413 -0.00874,0.00594 -0.020764,0.00892 -0.036063,0.00892 z M 7.45194,4.9715406 H 7.390747 v -0.067748 h 0.064472 c 0.014571,0 0.025673,0.00285 0.033327,0.00856 0.00765,0.0057 0.01148,0.013776 0.01148,0.024213 0,0.011906 -0.00438,0.020705 -0.013118,0.026413 -0.00874,0.00571 -0.020398,0.00856 -0.034969,0.00856 z M 7.46105,4.8640836 H 7.34668 v 0.254976 h 0.118012 c 0.014087,0 0.026953,-0.00151 0.038614,-0.00456 0.011658,-0.00304 0.021614,-0.00753 0.02987,-0.013476 0.00826,-0.00594 0.014626,-0.013287 0.01911,-0.022035 0.0045,-0.00874 0.00674,-0.018823 0.00674,-0.030228 0,-0.00874 -0.00121,-0.016449 -0.00363,-0.02313 -0.00243,-0.00668 -0.00589,-0.012449 -0.010386,-0.017295 -0.0045,-0.00486 -0.00983,-0.00906 -0.016024,-0.012579 -0.0062,-0.00352 -0.013059,-0.00661 -0.020579,-0.00928 0.0046,-0.00243 0.00916,-0.00534 0.013657,-0.00874 0.00449,-0.0034 0.00837,-0.00734 0.011653,-0.011847 0.00327,-0.00448 0.00594,-0.00977 0.00801,-0.015842 0.00207,-0.00607 0.00309,-0.012992 0.00309,-0.02076 0,-0.020154 -0.00752,-0.036063 -0.022575,-0.047716 C 7.507179,4.8699136 7.486789,4.8640876 7.461045,4.8640876 Z"
     class="fil5" />
</g>
</svg>
